<?xml version="1.0" encoding="UTF-8"?>
<svg xmlns="http://www.w3.org/2000/svg" xmlns:xlink="http://www.w3.org/1999/xlink" viewBox="0 0 2400 1130.19">
  <defs>
    <style>
      .cls-1 {
        isolation: isolate;
      }

      .cls-2 {
        fill: url(#linear-gradient);
        fill-rule: evenodd;
        stroke-width: 0px;
      }

      .cls-3 {
        mix-blend-mode: multiply;
      }
    </style>
    <linearGradient id="linear-gradient" x1="1217.68" y1="471.17" x2="1285.99" y2="25.15" gradientUnits="userSpaceOnUse">
      <stop offset="0" stop-color="#dedefe"/>
      <stop offset=".25" stop-color="#d7d8fd"/>
      <stop offset=".59" stop-color="#c5c7fc"/>
      <stop offset=".98" stop-color="#a8abfa"/>
      <stop offset="1" stop-color="#a7aafa"/>
    </linearGradient>
  </defs>
  <g class="cls-1">
    <g id="Layer_2" data-name="Layer 2">
      <g id="Layer_1-2" data-name="Layer 1">
        <g class="cls-3">
          <path class="cls-2" d="M2400,1130.19V211.17c-1.7-1.11-5.92.3-6.66-1.8-5.06.64-8.24-.59-11.76-1.48-4.79.15-9.12,5.21-13.24,1.48-5.8,2.06-8.4,7.36-16.19,7.42-9.12,2.28-8.36-5.41-14.71-5.94-4.57.15-8.16-.67-10.29-2.97-13.83,2.06-19.16-4.42-32.38-2.97-4.36.1-9.34,1.77-13.24,5.94-7.89-1.05-12.56,1.17-17.64,2.97-5.84.44-9-1.82-11.78-4.45-13.95,7.21-27.15,15.17-50.02,13.36-7.83,1.5-8.48,10.25-14.73,13.35-3.34.72-7.5,2.95-10.29,0-2.07,2.37-5.06,3.79-8.83,4.45-4.96.57-6.27-2.57-8.83-4.45-4.96-.09-6.27,2.68-8.83-1.48-3.91.02-8.4-.56-10.29,1.48-5.19-.2-6.58-4.25-11.78-4.45-9.12,2.13-16.84-2.07-25-1.48-10.55.77-18.91,8.56-30.9,7.42-6.76,5.55-16.64,7.95-25.02,11.87-8.77,3.03-16.35,7.25-25,10.39-7.17,1.28-7.56-4.25-14.73-2.97-6.6.26-10.94,2.8-13.24,7.42-5.88-3.3-10.08.87-14.71,2.97-7.42,1.01-10.74-3.02-16.17,0-12.01,5.2-19.04,15.43-29.43,22.26-16.8-1.6-22.69,7.76-30.9,14.84-10.76-3.98-15.96-13.58-29.43-14.84-4-6.84-12.62-9.02-17.64-14.84-7.97,1.6-8.77-4.02-16.19-2.97-10.43-12.23-25-20.28-41.19-26.71-3.77.16-7.01.84-8.83,2.97-12.79-6.88-25.78-13.58-42.68-16.33-1.83-3.58-6.01-4.8-10.29-5.94-3.83-8.02-12.64-11-17.66-17.8-6.5-4.82-11.58-11.07-19.12-14.84-9.47-13.19-20.33-25.01-33.85-34.13-7.71-1.61-14.35-4.32-22.07-5.94-9.96.33-18.51,2.09-27.95,2.97-6.68.8-8.81-2.99-13.24-4.45-6.35,3.29-11.88-1.37-20.59,0-5.63.76-7.93,4.88-13.24,5.94-1.02,4.92-11.23.55-11.78,5.94-14.45-6.24-29.32-5.62-47.07-2.97-6.99,2.34-11,7.71-16.19,11.87-8.34-.49-11.37,4.36-19.12,4.45-10.35,1.03-16.48-2.17-23.55-4.45-18.75,6.31-32.48,17.69-51.48,23.74-5.88,4.47-10.31,10.37-16.19,14.84-5.41.48-13.03-1.27-16.17,1.48-9.51.79-12.6,8.09-20.6,10.39-5.72.34-7.64-3.19-11.78-4.45-5.23-2.18-8.81,4.77-10.29,1.48-12.28-3.44-21.64-9.83-26.48-20.78-11.89,3.4-15.41-3.5-25-5.94-8.16.67-12.15,5.56-17.66,8.91-7.42-1.05-10.12,2.67-14.73,4.45-4.71-.16-8.67-2.65-13.24-2.97-4.61-.33-9.4,3.71-13.23,0-5.99,3.36-13.09,5.61-17.66,10.39-12.88,1.35-20.41,8.11-32.36,10.38-8.85,4.93-19.47,8.07-25.02,16.33-9.07-.39-10.52-1.06-19.12,0-.64-1.83-1.88-3.05-4.41-2.97-8.37-2.94-8.9-13.79-20.59-13.36-1.47-6.92-10.44-6.29-10.3-14.83-6.98.56-7.2-6.58-13.24-2.97-2.02-3.9-5.4-6.42-11.77-5.94-3.35-5.03-3.12-13.66-10.3-14.84-1.39-7-4.9-11.87-8.83-16.32-3.35-5.03-7.27-9.49-8.83-16.33-2.59-1.34-4.55-3.32-5.88-5.94-.61-3.34-8.07.22-7.35-4.45-6.94.92-9.89,5.85-16.19,7.42-5.54.64-6.7-3.13-8.82-5.94-2.94-1.98-6.39-3.46-7.36-7.42-2.12,1.66-3.59,1.6-4.41-1.49-.9.44-5.66,3.7-5.88,0-4.25-1.65-9.13-2.67-14.72-2.97-6.15-.21-6.15-6.65-8.83-10.38-4.91-.01-5.02,4.82-10.29,4.45-1.25-6.87-7.59-.89-8.83-5.94-5.12-2.61-5.59-1.3-10.3-2.97-3.38-2.53-6.32-5.5-8.83-8.91-.46-4.97-9.31-1.49-10.29-5.94-5.97-2.43-6.78,7.85-10.3,2.97-6.19,1.8-6.45-2.39-10.3-2.97-8.23-2.18-9.18,8.58-14.71,4.45-4.4-1.88-9.82-1.22-13.24-2.97-6.21-3.17-7.44-10.32-13.24-13.36-2.53,1.9-1.83,7.07-5.89,7.42-7.2-2.08-11.05-5.02-19.12-8.91-2.21-2.38-7.36,1.27-7.36-5.93-3.99-.92-6.89-2.95-8.82-5.94-5.86-.96-5.92,3.93-11.78,2.97,1.32-5.19-4.8-2.54-5.88-1.48-4.25,4.31-3.49-4.02-7.36-4.45-2.61,1.82-4.26,4.6-7.35,5.94-3.78.15-2.1,5.79-5.89,5.94,1.42,5.38-6.61,1.24-5.88,5.93-2.91,1.03-3.93,3.96-4.41,7.42-5.27-3.48-10.49,3.65-16.18,4.45-5.13,5.71-13.22,8.44-17.66,14.84-8.36,2.03-13.3-1.62-17.66,4.45-4.15-.76-6.25-3.59-10.3-4.45-5.01-1.1-2.42,5.47-5.88,5.94-.44,3.03-3.98,2.91-4.41,5.94-4.16,1.22-3.82-2.1-7.36-1.49-3.59,4.29-7.47,8.29-10.29,13.35-3.47-.46-2.73-5.15-7.35-4.45-2.32,2.61-6.76,3.09-7.36,7.42-6.61-1.42-6.39-8.34-14.71-4.45-2.18,1.72-3.71,1.72-5.89,0-5.27,1.12-5.7,7.12-8.83,10.39-4.27-1.63-10.44-1.34-14.71-2.97-3.23,3.91-6.03,4.98-10.3,1.48-6.12.23-2.94-8.91-7.35-10.39-3.8-1.61-6-4.83-7.36-8.9-5.64-5.21-11.31-10.36-14.71-17.81-4.16-5.65-4.05,2.21-8.83-1.48-2.08-7.8-6.27-13.47-10.3-19.3-9.5.3-12.44,7.24-17.66,11.87-8.94,1.86-17.18,4.43-20.59,11.88-4.72,1.3-3.05-3.85-5.88-4.45-3.88,1.53-4.96,5.89-8.83,7.42-5.92-.53-10.77.02-11.78,4.45-4.25-2.41-3.94-5.47-8.83-7.42-4.02-1.61-10.11,0-13.23-1.48-3.4-1.6-4.43-6.41-7.36-7.42-4.07,2.32-10.53,2.24-14.71,4.45-5.23-.17-5.35-5.49-11.77-4.45-5.79-.89-5.46,4.39-8.83,5.94-3.98-1.42-8.42-2.4-11.78-4.45-2.19-2.73-4.64-5.21-7.35-7.42-2.59.86-8.64-1.79-8.83,1.48-1.08-1.04-7.2-3.7-5.88,1.48-4.72-2.67-5.03-9.77-8.83-13.36-.93-3.53-9.06.23-10.3-2.97-4.18-4.68-3.94-13.84-13.24-13.35-3.23-7.66-9.98-16.85-16.18-22.26-2.7-2.34-6.03-6.93-10.3-4.45.7-4.67-2.09-5.8-2.94-8.9-6.76-3.09-11.78-7.91-17.66-11.88-2.84-9.49-8.2-16.45-11.77-25.23-7.74-1.37-7.78,5.02-13.24,5.94-4.16.24-3.43-4.45-7.35-4.45-8.69,6.9-15.77,6.62-27.96,8.91-8.27-4.51-16.74-8.84-26.49-11.86-5.61-1.22-1.73,7.15-7.35,5.93-12.44,3.85-18.91,3.49-30.9,4.45-3.42-3.58-3.93,2.32-7.35,2.97-1.16,3.28-5.15,3.71-7.35,5.94-4.41.05-9.91,1.21-13.24,5.94-6.28-.6-5.89-7.91-11.77-8.91-4.22,2.38-11.18,4.98-14.72,0-2.64,3.28-8.18,3.62-11.77,5.94-3.69,1.72-4.93,5.91-10.3,5.94-9.29,1.45-8.18-7.58-16.18-7.42-6,1.37-5.93,8.87-10.3,11.87-6.02,1.34-6.47,8.3-11.77,10.38-7.11-.24-7.91-6.86-16.18-5.93-7.78,1.05-14.51,3.16-17.66,8.9-3.85-3.54-9.29-5.47-11.77-10.38-3.98,4.22-11.41,4.97-17.28,7.29v1087.17h2400Z"/>
        </g>
      </g>
    </g>
  </g>
</svg>