<?xml version="1.0" encoding="UTF-8"?>
<svg id="Layer_2" data-name="Layer 2" xmlns="http://www.w3.org/2000/svg" xmlns:xlink="http://www.w3.org/1999/xlink" viewBox="0 0 2400 655.5">
  <defs>
    <style>
      .cls-1 {
        fill: url(#linear-gradient);
        fill-rule: evenodd;
        stroke-width: 0px;
      }
    </style>
    <linearGradient id="linear-gradient" x1="-4.37" y1="327.75" x2="2404.65" y2="327.75" gradientUnits="userSpaceOnUse">
      <stop offset="0" stop-color="#7162c2"/>
      <stop offset="1" stop-color="#5c4cb5"/>
    </linearGradient>
  </defs>
  <g id="Layer_1-2" data-name="Layer 1">
    <path class="cls-1" d="M2400,0c-2.19.57-4.32,1.16-6.29,1.86-1.48,9.83-14.39,12.36-18.5,20.55-9.98,4.4-19.41,9.15-25.39,16.13-4.98,2.21-12.56,2.75-17.3,5.12-.94,4.79-9.45,4.74-10.39,9.53-3.42-2.29-10.62-2.27-9.8,1.83-6.78,3-5.72-3.79-14.22-3.69-1.19,5.99-7.95,8.41-8.38,14.87-11.35-.96-13.57,3.92-22.11,4.75-5.47,8.2-15.78,13.28-25.61,18.7.18,6.06-9.18-2.39-9.9,3.11.96,4.65-8.75,2.49-7.79,7.15-6.5-1.29-3.18-6.89-11.52-7.36-6.07-4.75-9.16,3.99-11.91-2.22-8.44.44-9.45,5.63-12.79,9.34-6.13,1.49-11.31,3.56-12.7,8.07-9.3-8.75-14.12-19.47-26.97-26.67-13.2,1.1-21.02,1.08-29.2,2.9-4.18,4.53-6.13,10.47-8.5,16.15-6.21-.36-2.95,5.31-12.3,2.93,1.07,4.28-2.09,5.85-3.09,8.82-4.77,2.05-6.04-.33-12.01-.94-1.86,4.65-6.35,7.64-8.18,12.29-6.52,2.99-7.13-2.13-14.32-2.4-6.35,3.59-9.63,9.14-13.2,14.49-5.41-3.83-4.1-10.61-11.02-13.79-4.92,2.7-6.66,7.44-10.49,10.82-10.39-.78-9.96,5.33-17.4,6.41-2.99,6.21-9.49,10.14-15.6,14.32-5.94,4.3-11.23,9-22.5,9.88-9.75-1.5-7.87-8.14-18.63-9.2-5.33-1.47-7.75,2.28-12.3,2.91-4.34.6-9.57-3.65-12.11.35-7.62.04-8.3-2.97-16.72-2.6-12.97.7-14.63,8.63-27.3,9.53-3.5,11.68-18.13,16.29-28.38,23.65-5.51,9.53-10.39,19.43-23.59,24.04-4.1,17.6-20.21,27.52-29.77,41.64-4.84.16-18.07,1.82-21.62-1.68-7.25-1.35-4.16-7.26-11.41-8.63-4.61,2.13-8.07-1.74-11.84-3.52-8.69-1.52-12.85-.14-16.99,1.27-4.24.02-11.72-4.55-14.41-1.13-8.99-3.09-15.24-7.38-23.34-10.86-13.54,12.48-18.83,30.21-41.48,36.87-10.96-2.23-10.53-9.47-13.34-15.27-12.17,4.35-12.07,16.56-23.38,21.46-8.48,4.9-9.84-2.54-16.52-5.18-7.03,3.59-10.62,9.39-15.58,14.32-9.14,2.7-15.96,6.9-22.6,11.17-5.43.59-9.59,1.97-17.01,1.27-6.56,3.91-16.5,5.62-24.81,8.42-9.35-.04-11.56-3.2-21.52-2.97-5.14,1.09-8.98-1.31-12.31,2.93-4.08,1.33-13.3,2.31-16.91-.02-7.23,3.18-5.41-3.95-11.72-4.81-2.11-2.79-4.53-5.47-6.62-8.28-5.66-3.15-4.98-2.23-14.32-2.4-.43-3.54-2.62-6.29-6.62-8.26-8.28-.35-10.76,3.01-12.6,6.78-4.24.02-11.7-4.55-14.41-1.13-.57,2.79-6.25,2.3-12.21,1.64-5.53.51-7.48,3.32-10.1,5.68-1,2.97-11.45-.12-10,4.39-4.86,1.84-13.61,1.19-19.51,2.36-5.1,1.68-5.18,6.58-14.9,5.31-9.32-2.28-13.36.33-19.02-4.08-7.75-1.13-7.23-5.92-13.93-7.54-6.31-3.22-6.19,2.44-14.41-1.11-2.11-2.81-9-3.5-16.62-3.89-3.52-3.42-9.84-5.61-18.81-6.64-9.88-6.01-17.97-12.81-35.06-15.66-3.89-2.83-5.12-6.85-11.42-8.63-4.27-2.29-5.58-5.84-11.52-7.36-3.12-3.18-7.93-5.64-11.43-8.65-8.43-.43-7.21-5.12-11.51-7.36-12.75-2.26-17.07-8.24-30.64-10.16-10.35-9.92-29.35-16.07-44.06-24.12-12.09-.06-18.51-2.62-28.73-3.52-14.69-4.73-22.95-12.29-44.85-13.83-8.56-4.94-14.96-10.82-30.44-12.72,1.97-3.85-5.44-4.98-9.12-7.19-8.64-5.18-17.08-12.91-30.05-17.85-4.45-.53-7.96-1.46-9.4-3.32-20.59-3.38-40.96-2.91-60.06-4.67-9.55-.88-17.13-3.65-26.23-4.63-5.73-.6-12.57.18-19.32-.21-19.99-1.13-34.36-1.27-50.44-3.93-17.24,2.48-38.48,2.38-58.24,3.24-28.81-5.98-59.35-11.19-93.1-15-2.2.63-4.41,1.21-4.8-.37-15.75,2.5-33.24,3.92-48.83,6.54-11.14,2.77-21.52,6.02-32.11,9.14-6.42.84-8.48,4.47-14.9,5.31-9.54-1.15-6.96,5.43-14.9,5.31-12.34.2-25.81-.31-31.72,3.98-9.6-1.62-13.81.18-21.72-.39-7.55,1.02-13.21,3.24-17.41,6.41-12.05-2.3-12.4,2.85-19.61,3.65-7.15,1.27-8.16,6.46-12.79,9.34-10.17.27-17.75,2.15-26.82,3.11-11.05,1.02-12.78,8.01-29.41,5.47-8.78,2.48-13.66,7.44-27.12,6.95-8.56,2.6-17.05,5.27-29.41,5.45-6.13,3.73-14.53,6-27.01,5.66-9.93,5.8-24.42,8.67-32.61,15.59-11.34-.96-14.37,3.4-22.11,4.75-6.03,1.88-14.11-2.93-19.41,1.07-6.27.06-11.12-.35-17.11,2.54-8.83.16-12.72-1.86-16.61-3.87-5.12,1.56-12.82,5.96-19.52,2.36-7.55.55-11.51,3.42-19.6,3.63-12.27-1.93-14.57-1.58-26.23-4.61-12.43,1.93-17.9,8.34-27.51,12.07-10.69.82-22.66.8-27.01,5.66-7.19-2.17-9.27-1.7-14.51.16-.62,4.75-4.69,3.4-7.3.74-13.85,5.16-23.78,12.81-37.18,18.26v380.92c800.01,61.64,1600-35.16,2400,26.46V0Z"/>
  </g>
</svg>