<?xml version="1.0" encoding="UTF-8"?>
<svg id="Layer_2" data-name="Layer 2" xmlns="http://www.w3.org/2000/svg" xmlns:xlink="http://www.w3.org/1999/xlink" viewBox="0 0 2400 928.89">
  <defs>
    <style>
      .cls-1 {
        fill: url(#linear-gradient);
        fill-rule: evenodd;
        stroke-width: 0px;
      }
    </style>
    <linearGradient id="linear-gradient" x1="1156.67" y1="1003.2" x2="1289.69" y2="487.76" gradientUnits="userSpaceOnUse">
      <stop offset="0" stop-color="#342b59"/>
      <stop offset="1" stop-color="#4b3d81"/>
    </linearGradient>
  </defs>
  <g id="Layer_1-2" data-name="Layer 1">
    <path class="cls-1" d="M2400,0c-6.95.93-10.37,4.16-16.7,5.51-5.96,10.62-17.56,17.56-30.82,23.42-2.3-2.22-11.95.35-11.99-3.35-4.65-.79,1.23,5.26-3.42,4.46-5.62.05-8.52,1.88-15.41,1.11-6.54,3.17-7.93,9.7-15.41,12.28-6.62.59-8.36-1.99-15.41-1.12-3.01.99-2.81,4.95-6.84,2.24-1.56,1.95-3.18,3.88-8.57,3.34-4.94,2.72-9.55,5.66-15.41,7.81-6.8,7.84-11.17,17.26-20.55,23.42.74,7.16-4.43,10.49-5.12,16.73-4.47,2.67-9.61,4.9-11.99,8.92-7.21.51-7.89,5.27-13.69,6.69-2.85,3.73-5.72,7.43-8.57,11.15-4.02-.02-5.04,1.92-10.27,1.11-1.82,1.04-.53,4.12-5.14,3.35-6.04,4.25-11.93,8.58-13.69,15.62-9,2.68-14.63,7.58-18.83,13.38-2.27,2.36-6.86,0-6.86,0-6.44,1.18-7.89,6.69-15.41,8.92-.96,4.94-5.55,7.54-5.14,13.38-5.66,4.86-9.69,10.78-13.69,16.73-3.42,5.96-11.17,9.08-11.99,16.73-4.96.85-4.43,5.28-11.97,4.46-1.25,2.54-1.52,5.69-3.44,7.8-3.89.93-6.62.31-10.27,3.35-5.02.65-7.36,5.19-10.25,1.11-6.6,2.39-5.41,9.87-13.71,11.15-1.35-2.57-8.05.58-8.56,2.24-6.52-.21-4.14-6.23-10.27-6.7-5.74,2.95-10.18,6.76-15.41,10.04-5.92.91-7.23-2.08-10.27,0-8.16,1.75-11.09,6.9-18.83,8.92-2.19-3.78-6.07-6.45-8.57-10.03-6.6.15-6.74,4.52-11.97,5.58-4.39-2.53-12.07-.45-15.41,1.11-3.91,3.4-4.26,9.12-6.85,13.38-3.87,1.94-4.53,5.97-10.27,6.69.12,4.16-1.72,7.06-3.42,10.04-2.11-1.24-3.52-.97-3.42,1.11-8.11.58-22.09,2.7-25.68-2.23-5,1.57-5.43,6.12-8.57,8.93-8.75-.62-7.66-7.65-13.69-10.04-10.72,3.42-7.97,15.62-17.11,20.07-1.33,9.18-9.38,13.97-11.99,22.3-2.91-.41-3.24.87-3.42,2.24-5.9-.16-9.34,1.84-15.41,5.57-4-1.85-4.39-6.05-6.85-8.92-5.98,1.31-3.3,8.27-8.56,10.05-3.69,2.79-6.42,6.21-10.27,8.91-2.64,6.84-9.06,11.21-10.27,18.96-4.84,3.16-11.78,4.96-17.13,7.81-.51,8.58-9.53,11.62-11.97,18.95-6.84,4.47-13.28,9.2-17.13,15.63-3.42,2.23-8.75,3.22-11.99,5.57-.39,4.2-6.45,4.73-6.84,8.93-2.54-1.76-7.66-1.25-6.86,2.23-4.65,3.05-4.26-2.89-10.27-2.23-.53,5.23-5.18,7.77-5.14,13.38-8.09-.06-9.39,4.3-15.41,5.59-3.42,7.42-10.45,12.5-17.11,17.83.45,5.22-6.66-1.45-6.86,3.34.92,3.96-6.07,2.75-5.14,6.7-4.69-.66-2.64-5.72-8.55-5.59-4.57-3.67-6.27,4.06-8.57-1.11-5.96.96-6.39,5.51-8.56,8.93-4.26,1.7-7.83,3.83-8.55,7.81-7.07-6.93-11.05-15.84-20.55-21.19-9.32,1.83-14.84,2.34-20.55,4.45-2.71,4.2-3.79,9.45-5.14,14.51-4.41.1-1.8,4.77-8.56,3.34.98,3.61-1.17,5.2-1.72,7.81-3.26,2.09-4.3.12-8.55,0-1.08,4.14-4.08,7.01-5.14,11.15-4.45,2.99-5.18-1.37-10.27-1.11-4.3,3.51-6.33,8.51-8.57,13.38-4.04-2.95-3.48-8.89-8.55-11.15-3.34,2.66-4.32,6.86-6.86,10.04-7.4,0-6.76,5.25-11.97,6.68-1.78,5.55-6.17,9.38-10.27,13.38-3.98,4.1-7.46,8.53-15.41,10.04-6.99-.64-6.02-6.48-13.69-6.68-3.87-.9-5.39,2.48-8.57,3.34-3.03.82-6.97-2.5-8.55,1.11-5.41.55-6.05-2.01-11.99-1.11-9.14,1.49-9.88,8.42-18.83,10.04-1.86,10.31-11.95,15.25-18.83,22.3-3.38,8.57-6.31,17.44-15.41,22.31-1.95,15.45-12.83,25.1-18.83,37.91-3.44.45-12.72,2.77-15.41,0-5.22-.68-3.36-6-8.58-6.68-3.12,2.13-5.78-.96-8.55-2.25-6.25-.72-9.12.76-11.97,2.25-3.01.29-8.56-3.14-10.27,0-6.54-2.07-11.19-5.35-17.13-7.81-8.91,11.66-11.7,27.32-27.4,34.57-7.87-1.19-7.97-7.44-10.27-12.27-8.38,4.57-7.66,15.08-15.41,20.08-5.72,4.79-7.11-1.54-11.97-3.36-4.8,3.57-7.03,8.81-10.27,13.38-6.34,2.95-10.93,7.01-15.41,11.15-3.81.88-6.68,2.34-11.98,2.25-4.44,3.79-11.4,5.96-17.13,8.91-6.62.61-8.36-1.99-15.41-1.11-3.58,1.29-6.44-.51-8.56,3.36-2.82,1.43-9.29,2.87-11.98,1.11-4.94,3.22-4.05-3.03-8.56-3.36-1.64-2.27-3.5-4.41-5.14-6.68-4.18-2.34-3.65-1.6-10.27-1.11-.49-3.03-2.21-5.25-5.14-6.7-5.89.25-7.46,3.32-8.57,6.7-3,.31-8.53-3.15-10.27,0-.24,2.44-4.31,2.38-8.56,2.23-3.89.8-5.13,3.36-6.85,5.57-.55,2.64-8.12.66-6.85,4.47-3.34,1.91-9.58,1.93-13.69,3.34-3.53,1.8-3.31,6.04-10.27,5.59-6.73-1.35-9.45,1.17-13.7-2.25-5.56-.47-5.44-4.63-10.27-5.57-4.64-2.36-4.26,2.52-10.27,0-1.65-2.27-6.57-2.4-11.98-2.23-2.69-2.72-7.29-4.18-13.69-4.47-7.33-4.51-13.42-9.84-25.68-11.15-2.92-2.19-4-5.57-8.57-6.68-3.14-1.68-4.27-4.65-8.56-5.59-2.37-2.54-5.92-4.32-8.55-6.68-6,.17-5.39-3.93-8.56-5.59-9.16-1.09-12.54-5.96-22.26-6.68-7.88-7.89-21.67-11.91-32.53-17.85-8.57.76-13.25-1.04-20.55-1.11-10.66-3.09-16.92-9.04-32.53-8.93-6.34-3.67-11.18-8.32-22.26-8.92,1.19-3.44-4.12-3.91-6.85-5.57-6.41-3.89-12.81-9.98-22.27-13.38-3.18-.16-5.72-.74-6.85-2.23-14.76-1.54-29.18.23-42.8,0-6.82-.12-12.33-2.01-18.83-2.25-4.1-.14-8.9,1-13.7,1.11-14.23.37-24.41,1.21-35.96,0-12.08,3.3-27.14,4.63-41.09,6.7-20.73-3.22-42.65-5.66-66.77-6.7-1.52.7-3.07,1.35-3.43,0-11.02,3.22-23.34,5.63-34.24,8.93-7.75,3.14-14.92,6.64-22.26,10.04-4.51,1.15-5.77,4.41-10.27,5.59-6.83-.37-4.64,5.16-10.27,5.57-8.73,1.02-18.3,1.46-22.26,5.59-6.88-.78-9.78,1.05-15.41,1.11-5.29,1.39-9.19,3.67-11.98,6.68-8.67-1.17-8.64,3.3-13.7,4.47-5,1.56-5.43,6.11-8.56,8.91-7.18.9-12.45,3.05-18.83,4.47-7.77,1.62-8.62,7.75-20.55,6.68-6.08,2.73-9.28,7.34-18.84,7.81-5.92,2.83-11.8,5.7-20.54,6.7-4.15,3.61-9.98,6.13-18.84,6.68-6.73,5.66-16.84,9.12-22.26,15.62-8.09-.06-10,3.89-15.41,5.57-4.17,2.03-10.16-1.56-13.69,2.23-4.44.47-7.91.45-11.99,3.36-6.25.72-9.12-.76-11.98-2.25-3.54,1.72-8.76,6.02-13.7,3.36-5.32,1-7.97,3.73-13.69,4.45-8.79-.86-10.41-.39-18.84-2.23-8.7,2.5-12.23,8.38-18.83,12.27-7.53,1.41-16.02,2.21-18.84,6.7-5.22-1.41-6.65-.86-10.27,1.11-.19,4.12-3.13,3.22-5.14,1.11-11.32,6.39-18.52,15.45-30.81,21.19-29.72.04-59.38.12-89.06.18v187.17h2400V0Z"/>
  </g>
</svg>