<svg width="1000" height="667" viewBox="0 0 1000 667" fill="none" xmlns="http://www.w3.org/2000/svg">
<path d="M0 666.667H1000V2.95639e-05H0V666.667Z" fill="url(#paint0_linear_1_656)"/>
<path d="M-12.2734 186.017C-8.31718 185.019 -3.86666 187.153 -1.88229 191.004C-1.08698 189.704 0.726565 189.581 1.99479 190.315C3.26251 191.049 4.11303 192.397 4.91198 193.695C6.28542 190.836 10.5724 191.045 12.4083 193.579C12.8125 194.136 13.2396 194.839 13.8927 194.843C14.4995 194.848 14.9312 194.243 15.4063 193.832C17.5959 191.943 20.6989 194.165 22.7016 196.285C22.5771 194.196 24.7651 192.688 26.6885 192.817C28.6125 192.947 30.3079 194.149 32.0136 195.125C35.4407 197.084 39.2609 198.227 43.1281 198.448C44.6953 198.539 47.3697 198.305 47.5125 200.004C50.4333 201.112 53.3541 202.22 56.2751 203.328C60.2417 204.832 64.2511 206.348 68.4281 206.841C71.974 207.26 75.6145 206.939 79.0625 207.932C82.5104 208.927 85.8896 211.743 86.1937 215.603C94.0489 217.269 103.001 218.683 109.365 213.409C111.525 211.62 113.187 209.181 115.417 207.497C117.647 205.815 120.867 205.056 122.992 206.892C129.053 204.201 135.607 202.827 142.153 202.875C143.757 202.887 145.44 202.964 146.875 202.185C148.34 201.389 149.4 199.765 150.988 199.323C152.373 198.937 153.812 199.552 155.128 200.161C157.597 201.304 160.056 202.472 162.515 203.641C166.297 205.439 170.08 207.236 173.863 209.035C179.68 211.799 185.499 214.564 191.372 217.184C196.696 219.559 202.065 221.813 207.465 223.979C213.959 226.583 222.532 231.895 229.463 232.064C231.147 232.104 232.815 231.732 234.493 231.572C242.069 230.852 249.365 234.44 256.252 237.945C268.561 244.208 280.869 250.472 293.179 256.735C298.681 259.536 304.201 262.345 309.337 265.876C313.228 265.223 315.917 264.468 319.368 263.243C320.489 262.849 321.648 263.721 322.821 263.728C323.921 263.736 324.861 263.005 325.795 262.276C326.795 261.495 327.787 260.713 328.96 260.839C329.415 260.887 329.857 261.076 330.315 261.056C331.18 261.017 331.851 260.263 332.46 259.595C334.817 257.015 337.687 254.991 340.816 253.703C341.359 253.48 341.931 253.276 342.507 253.344C342.989 253.4 343.435 253.644 343.868 253.884C347.555 255.929 351.368 258.175 353.685 261.903C360.519 272.891 368.228 278.593 381.276 278.225C383.543 278.161 385.832 277.863 387.94 276.956C390.38 275.905 392.465 274.091 394.54 272.343C406.428 262.332 421.679 256.276 433.021 245.544C436.655 242.107 440.421 238.584 445.001 236.956C449.484 235.363 454.593 235.643 458.552 232.857C461.525 230.765 464.277 226.903 467.701 227.887C468.96 228.248 469.969 229.239 471.1 229.939C472.907 231.059 475.011 231.433 477.055 231.847C487.515 233.96 497.943 237.709 506.296 244.869C508.273 246.563 510.153 248.459 512.439 249.605C515.679 251.229 517.375 250.52 519.045 253.945C523.617 253.931 528.416 253.976 532.42 256.375C533.708 257.147 534.887 258.151 536.259 258.731C538.473 259.667 541.032 259.428 543.157 260.585C544.94 261.556 546.229 263.417 548.059 264.28C549.131 264.785 550.315 264.913 551.468 265.121C557.72 266.255 560.431 269.948 565.149 273.483C569.953 277.081 577.028 278.248 582.739 278.124C584.173 278.092 585.724 277.917 586.784 276.869C587.632 276.031 588.011 274.785 588.647 273.751C591.899 268.465 599.601 270.7 604.867 267.929C605.847 267.415 606.737 266.721 607.621 266.032C611.056 263.359 614.491 260.684 617.925 258.009C623.345 253.789 628.984 249.291 631.852 242.751C632.772 240.651 633.548 238.184 635.476 237.169C636.625 236.565 638 236.608 639.132 235.967C642.883 233.843 641.34 226.384 645.139 224.361C646.587 223.225 648.035 222.089 649.483 220.952C651.243 219.571 653.047 218.139 654.197 216.139C655.805 213.341 655.96 209.727 657.773 207.081C659.703 204.267 663.043 203.175 665.837 201.413C668.631 199.651 671.205 196.141 669.968 192.899C673.915 193.103 677.82 194.217 681.349 196.149C682.993 190.247 691.328 191.627 695.873 187.931C702.909 182.209 708.524 176.907 716.355 172.003C718.008 170.967 719.727 169.908 721.625 169.703C724.861 169.355 727.808 171.509 730.599 173.323C744.344 182.253 758.659 181.732 774.043 182.527C775.333 182.593 776.681 182.677 777.799 183.383C779.096 184.2 779.893 185.739 781.173 186.585C783.303 187.995 786.553 187.395 787.923 189.657C788.664 190.885 788.523 192.551 789.229 193.804C789.704 194.645 790.503 195.197 791.273 195.719C794.117 197.644 796.961 199.569 799.804 201.495C800.609 202.04 801.443 202.597 802.38 202.757C803.243 202.905 804.123 202.703 804.971 202.476C813.479 200.207 819.672 194.189 828.304 193.125C833.649 192.465 838.993 191.807 844.339 191.147C850.887 190.339 859.769 186.947 866.241 189.108C872.856 191.316 879.392 198.748 884.951 203.16C885.936 203.943 886.957 204.743 888.145 205.048C889.012 205.272 889.911 205.216 890.808 205.161C891.757 205.103 892.705 205.044 893.613 205.315C895.523 205.884 896.952 207.819 898.909 208.132C900.196 208.337 901.479 207.799 902.776 207.705C907.913 207.336 911.299 213.577 916.155 215.432C919.391 216.668 922.949 215.831 926.288 214.984C928.623 214.392 930.956 213.8 933.291 213.208C935.2 212.724 937.243 212.247 939.081 212.991C941.36 213.912 943.525 216.635 945.697 215.445C946.821 214.831 947.296 213.393 948.107 212.347C950.835 208.824 956.749 210.277 959.439 206.72C960.645 205.125 960.997 202.723 962.643 201.691C964.111 200.768 965.992 201.353 967.632 200.879C969.229 200.417 970.424 199.015 971.525 197.676C976.147 192.059 980.768 186.443 985.389 180.825C985.609 180.556 999.172 190.395 1000 191.204L999.16 680.422H-6.4453L-12.2734 186.017Z" fill="#97897A"/>
<mask id="mask0_1_656" style="mask-type:luminance" maskUnits="userSpaceOnUse" x="0" y="0" width="1000" height="667">
<path d="M0 666.667H1000V2.95639e-05H0V666.667Z" fill="white"/>
</mask>
<g mask="url(#mask0_1_656)">
<mask id="mask1_1_656" style="mask-type:luminance" maskUnits="userSpaceOnUse" x="-14" y="199" width="1033" height="480">
<path d="M1018.99 214.491C1014.95 213.553 1010.41 215.556 1008.39 219.168C1007.58 217.948 1005.73 217.832 1004.43 218.521C1003.14 219.209 1002.27 220.473 1001.45 221.691C1000.05 219.009 995.679 219.207 993.805 221.583C993.393 222.105 992.957 222.763 992.291 222.768C991.672 222.772 991.231 222.204 990.747 221.82C988.512 220.048 985.345 222.132 983.303 224.12C983.429 222.16 981.197 220.747 979.233 220.868C977.271 220.989 975.541 222.117 973.8 223.032C970.303 224.869 966.405 225.941 962.459 226.149C960.86 226.233 958.131 226.015 957.985 227.608C955.004 228.647 952.024 229.685 949.044 230.725C944.996 232.136 940.904 233.557 936.643 234.02C933.024 234.413 929.309 234.112 925.791 235.044C922.272 235.975 918.824 238.616 918.513 242.237C910.499 243.8 901.364 245.125 894.869 240.179C892.667 238.501 890.969 236.215 888.693 234.636C886.417 233.057 883.133 232.345 880.964 234.068C874.78 231.544 868.092 230.255 861.412 230.3C859.775 230.311 858.057 230.384 856.593 229.653C855.099 228.907 854.017 227.384 852.397 226.969C850.983 226.608 849.516 227.184 848.172 227.755C845.653 228.827 843.144 229.923 840.636 231.019C836.775 232.705 832.916 234.391 829.056 236.077C823.119 238.669 817.183 241.263 811.188 243.72C805.756 245.947 800.277 248.061 794.767 250.092C788.14 252.533 779.392 257.516 772.321 257.675C770.601 257.713 768.9 257.364 767.187 257.213C759.456 256.539 752.011 259.904 744.984 263.191C732.424 269.064 719.864 274.939 707.303 280.812C701.688 283.439 696.055 286.075 690.816 289.385C686.845 288.772 684.1 288.064 680.58 286.916C679.436 286.547 678.253 287.364 677.055 287.371C675.933 287.377 674.973 286.693 674.021 286.009C673.001 285.276 671.989 284.544 670.792 284.66C670.327 284.705 669.876 284.884 669.409 284.864C668.527 284.828 667.843 284.121 667.22 283.495C664.815 281.075 661.887 279.177 658.693 277.969C658.14 277.76 657.557 277.568 656.969 277.632C656.476 277.685 656.021 277.913 655.58 278.139C651.817 280.057 647.927 282.163 645.561 285.659C638.588 295.964 630.723 301.312 617.408 300.967C615.096 300.907 612.759 300.627 610.608 299.776C608.117 298.791 605.991 297.089 603.873 295.449C591.743 286.061 576.18 280.381 564.607 270.317C560.897 267.093 557.055 263.789 552.381 262.263C547.808 260.769 542.593 261.031 538.555 258.419C535.52 256.456 532.712 252.835 529.219 253.757C527.933 254.096 526.903 255.024 525.749 255.683C523.907 256.732 521.76 257.084 519.673 257.471C509 259.452 498.359 262.969 489.836 269.684C487.819 271.272 485.9 273.051 483.568 274.125C480.261 275.648 478.531 274.984 476.827 278.196C472.161 278.183 467.264 278.225 463.179 280.475C461.864 281.199 460.661 282.14 459.261 282.684C457.001 283.561 454.391 283.337 452.223 284.423C450.403 285.335 449.088 287.079 447.22 287.888C446.127 288.363 444.919 288.481 443.743 288.677C437.363 289.74 434.595 293.204 429.78 296.519C424.879 299.893 417.659 300.988 411.832 300.871C410.369 300.843 408.787 300.679 407.704 299.695C406.84 298.909 406.453 297.74 405.804 296.769C402.485 291.813 394.627 293.909 389.252 291.311C388.252 290.828 387.344 290.179 386.441 289.532C382.936 287.024 379.432 284.516 375.927 282.007C370.397 278.049 364.643 273.831 361.717 267.697C360.777 265.728 359.987 263.415 358.019 262.463C356.845 261.896 355.443 261.937 354.288 261.335C350.46 259.343 352.035 252.348 348.159 250.451C346.681 249.385 345.204 248.32 343.727 247.255C341.931 245.959 340.089 244.616 338.915 242.739C337.273 240.116 337.117 236.727 335.267 234.245C333.297 231.605 329.889 230.581 327.037 228.929C324.187 227.277 321.56 223.985 322.823 220.944C318.795 221.135 314.809 222.181 311.209 223.993C309.531 218.457 301.027 219.752 296.389 216.285C289.209 210.919 283.479 205.945 275.489 201.347C273.801 200.376 272.048 199.383 270.109 199.191C266.809 198.864 263.801 200.884 260.955 202.584C246.928 210.96 232.321 210.472 216.623 211.217C215.305 211.28 213.931 211.359 212.789 212.02C211.467 212.787 210.652 214.229 209.347 215.024C207.173 216.344 203.857 215.781 202.46 217.904C201.703 219.056 201.847 220.617 201.127 221.792C200.643 222.581 199.827 223.1 199.04 223.589C196.139 225.395 193.237 227.2 190.336 229.007C189.515 229.517 188.664 230.039 187.708 230.189C186.827 230.328 185.929 230.139 185.063 229.927C176.381 227.797 170.063 222.155 161.255 221.156C155.8 220.539 150.347 219.92 144.892 219.301C138.209 218.544 129.146 215.361 122.542 217.388C115.793 219.46 109.123 226.429 103.451 230.568C102.445 231.301 101.403 232.052 100.191 232.339C99.3068 232.548 98.3896 232.496 97.474 232.444C96.5052 232.389 95.5375 232.335 94.6109 232.588C92.6636 233.121 91.2047 234.937 89.2068 235.231C87.8937 235.423 86.586 234.917 85.262 234.831C80.0197 234.484 76.5656 240.337 71.6099 242.077C68.3084 243.236 64.6771 242.451 61.2693 241.657C58.8875 241.101 56.5057 240.547 54.1245 239.992C52.1755 239.537 50.0907 239.091 48.2156 239.787C45.8901 240.652 43.6797 243.204 41.464 242.089C40.3177 241.512 39.8323 240.164 39.0063 239.184C36.2224 235.879 30.1869 237.243 27.4421 233.907C26.2115 232.411 25.8521 230.157 24.1735 229.189C22.6745 228.324 20.7547 228.873 19.0817 228.428C17.4521 227.996 16.2328 226.68 15.1093 225.425C10.3937 220.157 5.6776 214.889 0.96146 209.621C0.736981 209.369 -13.1016 218.596 -13.9469 219.355L-13.0901 678.162H1013.04L1018.99 214.491Z" fill="white"/>
</mask>
<g mask="url(#mask1_1_656)">
<path d="M0 666.667V210H0.133333V209.867H0.4V209.733H0.666667V209.6H1.06667V209.733H1.2V209.867H1.33333V210H1.46667V210.133H1.6V210.267H1.73333V210.4H1.86667V210.533H2V210.667H2.13333V210.8H2.26667V211.067H2.4V211.2H2.53333V211.333H2.66667V211.467H2.8V211.6H2.93333V211.733H3.06667V211.867H3.2V212H3.33333V212.267H3.46667V212.4H3.6V212.533H3.73333V212.667H3.86667V212.8H4V212.933H4.13333V213.067H4.26667V213.2H4.4V213.333H4.53333V213.6H4.66667V213.733H4.8V213.867H4.93333V214H5.06667V214.133H5.2V214.267H5.33333V214.4H5.46667V214.533H5.6V214.8H5.73333V214.933H5.86667V215.067H6V215.2H6.13333V215.333H6.26667V215.467H6.4V215.6H6.53333V215.733H6.66667V215.867H6.8V216.133H6.93333V216.267H7.06667V216.4H7.2V216.533H7.33333V216.667H7.46667V216.8H7.6V216.933H7.73333V217.067H7.86667V217.333H8V217.467H8.13333V217.6H8.26667V217.733H8.4V217.867H8.53333V218H8.66667V218.133H8.8V218.267H8.93333V218.4H9.06667V218.667H9.2V218.8H9.33333V218.933H9.46667V219.067H9.6V219.2H9.73333V219.333H9.86667V219.467H10V219.6H10.1333V219.867H10.2667V220H10.4V220.133H10.5333V220.267H10.6667V220.4H10.8V220.533H10.9333V220.667H11.0667V220.8H11.2V220.933H11.3333V221.2H11.4667V221.333H11.6V221.467H11.7333V221.6H11.8667V221.733H12V221.867H12.1333V222H12.2667V222.133H12.4V222.267H12.5333V222.533H12.6667V222.667H12.8V222.8H12.9333V222.933H13.0667V223.067H13.2V223.2H13.3333V223.333H13.4667V223.467H13.6V223.733H13.7333V223.867H13.8667V224H14V224.133H14.1333V224.267H14.2667V224.4H14.4V224.533H14.5333V224.667H14.6667V224.8H14.8V225.067H14.9333V225.2H15.0667V225.333H15.2V225.467H15.3333V225.6H15.4667V225.733H15.6V225.867H15.7333V226H15.8667V226.133H16V226.267H16.1333V226.4H16.2667V226.533H16.4V226.667H16.5333V226.8H16.6667V226.933H16.8V227.067H16.9333V227.2H17.0667V227.333H17.3333V227.467H17.4667V227.6H17.7333V227.733H17.8667V227.867H18.1333V228H18.4V228.133H18.6667V228.267H19.0667V228.4H19.7333V228.533H21.8667V228.667H23.2V228.8H23.6V228.933H24V229.067H24.2667V229.2H24.5333V229.333H24.6667V229.467H24.8V229.6H24.9333V229.733H25.0667V229.867H25.2V230H25.3333V230.267H25.4667V230.4H25.6V230.667H25.7333V230.933H25.8667V231.067H26V231.333H26.1333V231.6H26.2667V231.867H26.4V232.133H26.5333V232.4H26.6667V232.667H26.8V232.8H26.9333V233.067H27.0667V233.333H27.2V233.6H27.3333V233.733H27.4667V233.867H27.6V234H27.7333V234.133H27.8667V234.267H28V234.4H28.1333V234.533H28.2667V234.667H28.5333V234.8H28.6667V234.933H28.9333V235.067H29.2V235.2H29.4667V235.333H29.7333V235.467H30V235.6H30.2667V235.733H30.6667V235.867H31.0667V236H31.4667V236.133H32V236.267H32.6667V236.4H33.2V236.533H33.7333V236.667H34.2667V236.8H34.9333V236.933H35.3333V237.067H35.7333V237.2H36.1333V237.333H36.5333V237.467H36.8V237.6H37.0667V237.733H37.3333V237.867H37.6V238H37.8667V238.133H38V238.267H38.2667V238.4H38.4V238.533H38.5333V238.667H38.6667V238.8H38.8V238.933H38.9333V239.067H39.0667V239.2H39.2V239.333H39.3333V239.6H39.4667V239.733H39.6V240H39.7333V240.133H39.8667V240.4H40V240.533H40.1333V240.8H40.2667V240.933H40.4V241.067H40.5333V241.2H40.6667V241.467H40.8V241.6H41.0667V241.733H41.2V241.867H41.3333V242H41.6V242.133H42V242.267H43.2V242.133H43.7333V242H44V241.867H44.4V241.733H44.6667V241.6H44.9333V241.467H45.0667V241.333H45.3333V241.2H45.6V241.067H45.7333V240.933H46V240.8H46.2667V240.667H46.4V240.533H46.6667V240.4H46.9333V240.267H47.0667V240.133H47.3333V240H47.6V239.867H47.8667V239.733H48.2667V239.6H48.8V239.467H49.6V239.333H51.3333V239.467H52.2667V239.6H53.0667V239.733H53.6V239.867H54.2667V240H54.8V240.133H55.3333V240.267H56V240.4H56.5333V240.533H57.0667V240.667H57.6V240.8H58.2667V240.933H58.8V241.067H59.3333V241.2H60V241.333H60.5333V241.467H61.0667V241.6H61.6V241.733H62.2667V241.867H62.9333V242H63.4667V242.133H64.2667V242.267H65.2V242.4H66.1333V242.533H69.4667V242.4H70.2667V242.267H71.0667V242.133H71.3333V242H71.7333V241.867H72.1333V241.733H72.4V241.6H72.6667V241.467H72.9333V241.333H73.2V241.2H73.4667V241.067H73.6V240.933H73.8667V240.8H74V240.667H74.2667V240.533H74.4V240.4H74.6667V240.267H74.9333V240.133H75.0667V240H75.2V239.867H75.4667V239.733H75.6V239.6H75.7333V239.467H76V239.333H76.1333V239.2H76.2667V239.067H76.5333V238.933H76.6667V238.8H76.8V238.667H76.9333V238.533H77.2V238.4H77.3333V238.267H77.4667V238.133H77.7333V238H77.8667V237.867H78V237.733H78.1333V237.6H78.4V237.467H78.5333V237.333H78.8V237.2H78.9333V237.067H79.0667V236.933H79.3333V236.8H79.4667V236.667H79.6V236.533H79.8667V236.4H80.1333V236.267H80.2667V236.133H80.5333V236H80.8V235.867H81.0667V235.733H81.2V235.6H81.4667V235.467H81.8667V235.333H82.2667V235.2H82.6667V235.067H83.0667V234.933H83.6V234.8H86.1333V234.933H86.9333V235.067H87.8667V235.2H89.3333V235.067H89.7333V234.933H90.1333V234.8H90.5333V234.667H90.6667V234.533H90.9333V234.4H91.2V234.267H91.4667V234.133H91.6V234H91.8667V233.867H92.1333V233.733H92.2667V233.6H92.5333V233.467H92.6667V233.333H92.9333V233.2H93.2V233.067H93.4667V232.933H93.7333V232.8H94V232.667H94.2667V232.533H94.8V232.4H99.8667V232.267H100.4V232.133H100.667V232H101.067V231.867H101.333V231.733H101.6V231.6H101.867V231.467H102V231.333H102.267V231.2H102.4V231.067H102.667V230.933H102.8V230.8H103.067V230.667H103.2V230.533H103.467V230.4H103.6V230.267H103.733V230.133H104V230H104.133V229.867H104.267V229.733H104.533V229.6H104.667V229.467H104.8V229.333H105.067V229.2H105.2V229.067H105.333V228.933H105.467V228.8H105.733V228.667H105.867V228.533H106V228.4H106.133V228.267H106.267V228.133H106.533V228H106.667V227.867H106.8V227.733H106.933V227.6H107.2V227.467H107.333V227.333H107.467V227.2H107.6V227.067H107.733V226.933H108V226.8H108.133V226.667H108.267V226.533H108.4V226.4H108.667V226.267H108.8V226.133H108.933V226H109.067V225.867H109.2V225.733H109.467V225.6H109.6V225.467H109.733V225.333H109.867V225.2H110V225.067H110.267V224.933H110.4V224.8H110.533V224.667H110.667V224.533H110.933V224.4H111.067V224.267H111.2V224.133H111.333V224H111.6V223.867H111.733V223.733H111.867V223.6H112V223.467H112.133V223.333H112.4V223.2H112.533V223.067H112.667V222.933H112.933V222.8H113.067V222.667H113.2V222.533H113.467V222.4H113.6V222.267H113.733V222.133H114V222H114.133V221.867H114.267V221.733H114.533V221.6H114.667V221.467H114.8V221.333H115.067V221.2H115.2V221.067H115.467V220.933H115.6V220.8H115.867V220.667H116V220.533H116.267V220.4H116.4V220.267H116.667V220.133H116.8V220H117.067V219.867H117.2V219.733H117.467V219.6H117.733V219.467H118V219.333H118.133V219.2H118.4V219.067H118.667V218.933H118.933V218.8H119.2V218.667H119.467V218.533H119.6V218.4H119.867V218.267H120.267V218.133H120.533V218H120.8V217.867H121.2V217.733H121.467V217.6H121.733V217.467H122.267V217.333H122.667V217.2H123.067V217.067H123.867V216.933H124.667V216.8H126.267V216.667H129.2V216.8H131.067V216.933H132V217.067H133.067V217.2H134V217.333H134.667V217.467H135.467V217.6H136.133V217.733H136.933V217.867H137.6V218H138.267V218.133H138.933V218.267H139.6V218.4H140.267V218.533H141.067V218.667H141.733V218.8H142.4V218.933H143.333V219.067H144.133V219.2H145.2V219.333H146.4V219.467H147.6V219.6H148.8V219.733H150V219.867H151.067V220H152.267V220.133H153.467V220.267H154.667V220.4H155.867V220.533H157.067V220.667H158.133V220.8H159.333V220.933H160.533V221.067H161.733V221.2H162.533V221.333H163.2V221.467H163.867V221.6H164.533V221.733H164.933V221.867H165.333V222H165.867V222.133H166.267V222.267H166.667V222.4H167.2V222.533H167.6V222.667H167.867V222.8H168.267V222.933H168.533V223.067H168.933V223.2H169.2V223.333H169.6V223.467H169.867V223.6H170.267V223.733H170.533V223.867H170.8V224H171.2V224.133H171.467V224.267H171.733V224.4H172V224.533H172.267V224.667H172.533V224.8H172.933V224.933H173.2V225.067H173.467V225.2H173.733V225.333H174V225.467H174.267V225.6H174.533V225.733H174.8V225.867H175.067V226H175.333V226.133H175.6V226.267H176V226.4H176.267V226.533H176.533V226.667H176.8V226.8H177.067V226.933H177.333V227.067H177.733V227.2H178V227.333H178.267V227.467H178.533V227.6H178.8V227.733H179.2V227.867H179.467V228H179.867V228.133H180.133V228.267H180.533V228.4H180.8V228.533H181.2V228.667H181.467V228.8H181.867V228.933H182.267V229.067H182.667V229.2H183.067V229.333H183.467V229.467H183.867V229.6H184.4V229.733H184.933V229.867H185.467V230H186.133V230.133H187.867V230H188.267V229.867H188.667V229.733H189.067V229.6H189.2V229.467H189.467V229.333H189.733V229.2H190V229.067H190.133V228.933H190.4V228.8H190.667V228.667H190.8V228.533H191.067V228.4H191.2V228.267H191.467V228.133H191.733V228H191.867V227.867H192.133V227.733H192.267V227.6H192.533V227.467H192.8V227.333H192.933V227.2H193.2V227.067H193.333V226.933H193.6V226.8H193.867V226.667H194V226.533H194.267V226.4H194.4V226.267H194.667V226.133H194.933V226H195.067V225.867H195.333V225.733H195.467V225.6H195.733V225.467H196V225.333H196.133V225.2H196.4V225.067H196.533V224.933H196.8V224.8H197.067V224.667H197.2V224.533H197.467V224.4H197.733V224.267H197.867V224.133H198.133V224H198.267V223.867H198.533V223.733H198.8V223.6H198.933V223.467H199.2V223.333H199.333V223.2H199.6V223.067H199.733V222.933H200V222.8H200.133V222.667H200.267V222.533H200.4V222.4H200.533V222.267H200.667V222.133H200.8V222H200.933V221.867H201.067V221.6H201.2V221.333H201.333V220.933H201.467V220.533H201.6V220H201.733V219.467H201.867V218.933H202V218.533H202.133V218.133H202.267V217.867H202.4V217.733H202.533V217.6H202.667V217.467H202.8V217.333H202.933V217.2H203.067V217.067H203.2V216.933H203.467V216.8H203.6V216.667H204V216.533H204.267V216.4H204.667V216.267H205.2V216.133H205.733V216H206.267V215.867H206.933V215.733H207.467V215.6H207.867V215.467H208.267V215.333H208.667V215.2H208.933V215.067H209.2V214.933H209.467V214.8H209.6V214.667H209.733V214.533H210V214.4H210.133V214.267H210.267V214.133H210.4V214H210.533V213.867H210.667V213.733H210.8V213.6H210.933V213.467H211.067V213.333H211.2V213.2H211.333V213.067H211.467V212.933H211.6V212.8H211.733V212.667H211.867V212.533H212V212.4H212.133V212.267H212.4V212.133H212.533V212H212.8V211.867H213.067V211.733H213.333V211.6H213.733V211.467H214.267V211.333H215.067V211.2H216.933V211.067H220.133V210.933H223.333V210.8H226.533V210.667H229.2V210.533H231.2V210.4H233.333V210.267H234.667V210.133H235.867V210H237.2V209.867H238.4V209.733H239.467V209.6H240.267V209.467H241.067V209.333H241.733V209.2H242.533V209.067H243.333V208.933H244.133V208.8H244.8V208.667H245.333V208.533H245.867V208.4H246.4V208.267H246.8V208.133H247.333V208H247.867V207.867H248.4V207.733H248.8V207.6H249.333V207.467H249.867V207.333H250.267V207.2H250.667V207.067H251.067V206.933H251.333V206.8H251.733V206.667H252.133V206.533H252.4V206.4H252.8V206.267H253.2V206.133H253.467V206H253.867V205.867H254.133V205.733H254.533V205.6H254.933V205.467H255.2V205.333H255.6V205.2H255.867V205.067H256.133V204.933H256.4V204.8H256.667V204.667H256.933V204.533H257.2V204.4H257.467V204.267H257.733V204.133H258V204H258.267V203.867H258.533V203.733H258.8V203.6H259.067V203.467H259.333V203.333H259.6V203.2H259.867V203.067H260.133V202.933H260.267V202.8H260.533V202.667H260.8V202.533H260.933V202.4H261.2V202.267H261.467V202.133H261.6V202H261.867V201.867H262.133V201.733H262.267V201.6H262.533V201.467H262.8V201.333H262.933V201.2H263.2V201.067H263.467V200.933H263.733V200.8H264V200.667H264.267V200.533H264.533V200.4H264.8V200.267H265.067V200.133H265.333V200H265.733V199.867H266.133V199.733H266.4V199.6H266.8V199.467H267.2V199.333H267.733V199.2H268.8V199.067H270.267V199.2H270.933V199.333H271.6V199.467H272V199.6H272.267V199.733H272.667V199.867H273.067V200H273.333V200.133H273.6V200.267H273.867V200.4H274.133V200.533H274.4V200.667H274.533V200.8H274.8V200.933H275.067V201.067H275.333V201.2H275.467V201.333H275.733V201.467H276V201.6H276.267V201.733H276.4V201.867H276.667V202H276.933V202.133H277.2V202.267H277.333V202.4H277.6V202.533H277.733V202.667H278V202.8H278.133V202.933H278.4V203.067H278.533V203.2H278.8V203.333H279.067V203.467H279.2V203.6H279.467V203.733H279.6V203.867H279.867V204H280V204.133H280.267V204.267H280.4V204.4H280.667V204.533H280.933V204.667H281.067V204.8H281.333V204.933H281.467V205.067H281.6V205.2H281.867V205.333H282V205.467H282.267V205.6H282.4V205.733H282.533V205.867H282.8V206H282.933V206.133H283.2V206.267H283.333V206.4H283.467V206.533H283.733V206.667H283.867V206.8H284.133V206.933H284.267V207.067H284.4V207.2H284.667V207.333H284.8V207.467H285.067V207.6H285.2V207.733H285.333V207.867H285.6V208H285.733V208.133H286V208.267H286.133V208.4H286.267V208.533H286.533V208.667H286.667V208.8H286.8V208.933H287.067V209.067H287.2V209.2H287.333V209.333H287.6V209.467H287.733V209.6H287.867V209.733H288V209.867H288.267V210H288.4V210.133H288.533V210.267H288.8V210.4H288.933V210.533H289.067V210.667H289.333V210.8H289.467V210.933H289.6V211.067H289.867V211.2H290V211.333H290.133V211.467H290.267V211.6H290.533V211.733H290.667V211.867H290.8V212H291.067V212.133H291.2V212.267H291.333V212.4H291.6V212.533H291.733V212.667H291.867V212.8H292V212.933H292.267V213.067H292.4V213.2H292.533V213.333H292.8V213.467H292.933V213.6H293.067V213.733H293.333V213.867H293.467V214H293.6V214.133H293.733V214.267H294V214.4H294.133V214.533H294.267V214.667H294.533V214.8H294.667V214.933H294.8V215.067H295.067V215.2H295.2V215.333H295.333V215.467H295.6V215.6H295.733V215.733H295.867V215.867H296.133V216H296.267V216.133H296.4V216.267H296.667V216.4H296.8V216.533H297.067V216.667H297.2V216.8H297.467V216.933H297.733V217.067H298V217.2H298.267V217.333H298.533V217.467H298.933V217.6H299.2V217.733H299.6V217.867H300V218H300.4V218.133H300.8V218.267H301.333V218.4H301.733V218.533H302.267V218.667H302.8V218.8H303.333V218.933H303.867V219.067H304.4V219.2H304.8V219.333H305.333V219.467H305.733V219.6H306.267V219.733H306.533V219.867H306.933V220H307.333V220.133H307.6V220.267H307.867V220.4H308.133V220.533H308.4V220.667H308.667V220.8H308.933V220.933H309.067V221.067H309.2V221.2H309.467V221.333H309.6V221.467H309.733V221.6H309.867V221.733H310V221.867H310.133V222H310.267V222.133H310.4V222.267H310.533V222.533H310.667V222.8H310.8V222.933H310.933V223.2H311.067V223.467H311.2V223.867H311.333V223.733H311.6V223.6H312V223.467H312.267V223.333H312.533V223.2H312.933V223.067H313.2V222.933H313.6V222.8H313.867V222.667H314.267V222.533H314.667V222.4H315.067V222.267H315.467V222.133H316V222H316.4V221.867H316.8V221.733H317.467V221.6H318V221.467H318.667V221.333H319.333V221.2H320.133V221.067H321.333V220.933H322.933V221.067H322.8V221.467H322.667V222.133H322.533V222.533H322.667V223.6H322.8V224.133H322.933V224.533H323.067V224.8H323.2V225.067H323.333V225.333H323.467V225.467H323.6V225.733H323.733V225.867H323.867V226H324V226.267H324.133V226.4H324.267V226.533H324.4V226.667H324.533V226.8H324.667V226.933H324.8V227.2H324.933V227.333H325.067V227.467H325.333V227.6H325.467V227.733H325.6V227.867H325.733V228H325.867V228.133H326.133V228.267H326.267V228.4H326.533V228.533H326.667V228.667H326.933V228.8H327.067V228.933H327.333V229.067H327.6V229.2H327.867V229.333H328.133V229.467H328.4V229.6H328.667V229.733H328.933V229.867H329.2V230H329.467V230.133H329.733V230.267H330V230.4H330.267V230.533H330.533V230.667H330.8V230.8H331.067V230.933H331.2V231.067H331.467V231.2H331.733V231.333H332V231.467H332.267V231.6H332.4V231.733H332.667V231.867H332.8V232H333.067V232.133H333.2V232.267H333.467V232.4H333.6V232.533H333.733V232.667H333.867V232.8H334.133V232.933H334.267V233.067H334.4V233.2H334.533V233.333H334.667V233.467H334.8V233.6H334.933V233.733H335.067V233.867H335.2V234.133H335.333V234.267H335.467V234.4H335.6V234.667H335.733V234.933H335.867V235.2H336V235.467H336.133V235.733H336.267V236H336.4V236.267H336.533V236.533H336.667V236.933H336.8V237.333H336.933V237.733H337.067V238.133H337.2V238.4H337.333V238.8H337.467V239.2H337.6V239.6H337.733V240H337.867V240.4H338V240.8H338.133V241.067H338.267V241.467H338.4V241.733H338.533V242H338.667V242.267H338.8V242.533H338.933V242.667H339.067V242.933H339.2V243.067H339.333V243.333H339.467V243.467H339.6V243.6H339.733V243.733H339.867V244H340V244.133H340.133V244.267H340.267V244.4H340.4V244.533H340.533V244.667H340.667V244.8H340.933V244.933H341.067V245.067H341.2V245.2H341.333V245.333H341.467V245.467H341.6V245.6H341.733V245.733H342V245.867H342.133V246H342.267V246.133H342.4V246.267H342.667V246.4H342.8V246.533H342.933V246.667H343.2V246.8H343.333V246.933H343.467V247.067H343.733V247.2H343.867V247.333H344.133V247.467H344.267V247.6H344.4V247.733H344.667V247.867H344.8V248H345.067V248.133H345.2V248.267H345.333V248.4H345.6V248.533H345.733V248.667H346V248.8H346.133V248.933H346.267V249.067H346.533V249.2H346.667V249.333H346.8V249.467H347.067V249.6H347.2V249.733H347.467V249.867H347.6V250H347.733V250.133H348V250.267H348.133V250.4H348.4V250.533H348.667V250.667H348.8V250.8H348.933V250.933H349.067V251.067H349.2V251.2H349.333V251.333H349.467V251.467H349.6V251.6H349.733V251.867H349.867V252.133H350V252.267H350.133V252.533H350.267V252.8H350.4V253.067H350.533V253.467H350.667V253.867H350.8V254.133H350.933V254.667H351.067V255.2H351.2V255.6H351.333V256.133H351.467V256.667H351.6V257.067H351.733V257.6H351.867V257.867H352V258.267H352.133V258.667H352.267V259.067H352.4V259.2H352.533V259.467H352.667V259.6H352.8V259.867H352.933V260.133H353.067V260.267H353.2V260.4H353.333V260.533H353.467V260.667H353.6V260.8H353.733V260.933H353.867V261.067H354.133V261.2H354.4V261.333H354.667V261.467H355.067V261.6H355.467V261.733H356V261.867H356.533V262H357.2V262.133H357.6V262.267H358V262.4H358.267V262.533H358.533V262.667H358.667V262.8H358.8V262.933H358.933V263.067H359.067V263.2H359.333V263.333H359.467V263.6H359.6V263.733H359.733V263.867H359.867V264.133H360V264.267H360.133V264.533H360.267V264.667H360.4V264.933H360.533V265.2H360.667V265.467H360.8V265.733H360.933V266H361.067V266.267H361.2V266.533H361.333V266.8H361.467V267.067H361.6V267.333H361.733V267.6H361.867V268H362V268.267H362.133V268.4H362.267V268.667H362.4V268.933H362.533V269.2H362.667V269.333H362.8V269.6H362.933V269.867H363.067V270H363.2V270.267H363.333V270.4H363.467V270.533H363.6V270.8H363.733V270.933H363.867V271.2H364V271.333H364.133V271.467H364.267V271.733H364.4V271.867H364.533V272H364.667V272.267H364.8V272.4H364.933V272.533H365.067V272.667H365.2V272.8H365.333V272.933H365.467V273.2H365.6V273.333H365.733V273.467H365.867V273.6H366V273.733H366.133V273.867H366.267V274H366.4V274.133H366.533V274.267H366.667V274.4H366.8V274.533H366.933V274.667H367.067V274.8H367.2V274.933H367.333V275.067H367.467V275.2H367.6V275.333H367.733V275.467H367.867V275.6H368V275.733H368.133V275.867H368.267V276H368.4V276.133H368.533V276.267H368.8V276.4H368.933V276.533H369.067V276.667H369.2V276.8H369.333V276.933H369.467V277.067H369.6V277.2H369.867V277.333H370V277.467H370.133V277.6H370.267V277.733H370.533V277.867H370.667V278H370.8V278.133H370.933V278.267H371.2V278.4H371.333V278.533H371.467V278.667H371.6V278.8H371.867V278.933H372V279.067H372.133V279.2H372.4V279.333H372.533V279.467H372.667V279.6H372.933V279.733H373.067V279.867H373.2V280H373.467V280.133H373.6V280.267H373.733V280.4H374V280.533H374.133V280.667H374.267V280.8H374.533V280.933H374.667V281.067H374.933V281.2H375.067V281.333H375.2V281.467H375.467V281.6H375.6V281.733H375.733V281.867H376V282H376.133V282.133H376.4V282.267H376.533V282.4H376.667V282.533H376.933V282.667H377.067V282.8H377.333V282.933H377.467V283.067H377.6V283.2H377.867V283.333H378V283.467H378.267V283.6H378.4V283.733H378.533V283.867H378.8V284H378.933V284.133H379.2V284.267H379.333V284.4H379.467V284.533H379.733V284.667H379.867V284.8H380.133V284.933H380.267V285.067H380.4V285.2H380.667V285.333H380.8V285.467H381.067V285.6H381.2V285.733H381.333V285.867H381.6V286H381.733V286.133H382V286.267H382.133V286.4H382.267V286.533H382.533V286.667H382.667V286.8H382.933V286.933H383.067V287.067H383.2V287.2H383.467V287.333H383.6V287.467H383.867V287.6H384V287.733H384.133V287.867H384.4V288H384.533V288.133H384.8V288.267H384.933V288.4H385.067V288.533H385.333V288.667H385.467V288.8H385.733V288.933H385.867V289.067H386V289.2H386.267V289.333H386.4V289.467H386.667V289.6H386.8V289.733H386.933V289.867H387.2V290H387.333V290.133H387.6V290.267H387.733V290.4H388V290.533H388.133V290.667H388.4V290.8H388.667V290.933H388.8V291.067H389.067V291.2H389.333V291.333H389.6V291.467H390V291.6H390.267V291.733H390.8V291.867H391.2V292H391.6V292.133H392.133V292.267H392.8V292.4H393.6V292.533H394.4V292.667H395.467V292.8H396.533V292.933H397.6V293.067H398.667V293.2H399.467V293.333H400.133V293.467H400.8V293.6H401.333V293.733H401.733V293.867H402.133V294H402.533V294.133H402.8V294.267H403.067V294.4H403.333V294.533H403.6V294.667H403.733V294.8H404V294.933H404.133V295.067H404.4V295.2H404.533V295.333H404.667V295.467H404.8V295.6H404.933V295.733H405.2V296H405.333V296.133H405.467V296.267H405.6V296.4H405.733V296.533H405.867V296.8H406V297.067H406.133V297.2H406.267V297.467H406.4V297.733H406.533V298H406.667V298.267H406.8V298.4H406.933V298.667H407.067V298.933H407.2V299.067H407.333V299.2H407.467V299.333H407.6V299.6H407.867V299.733H408V299.867H408.133V300H408.4V300.133H408.667V300.267H408.933V300.4H409.333V300.533H409.867V300.667H410.667V300.8H414.933V300.667H416.8V300.533H417.867V300.4H418.933V300.267H419.6V300.133H420.4V300H421.067V299.867H421.6V299.733H422.133V299.6H422.667V299.467H423.2V299.333H423.6V299.2H424V299.067H424.4V298.933H424.8V298.8H425.2V298.667H425.6V298.533H425.867V298.4H426.133V298.267H426.533V298.133H426.8V298H427.067V297.867H427.333V297.733H427.6V297.6H427.867V297.467H428.133V297.333H428.4V297.2H428.667V297.067H428.8V296.933H429.067V296.8H429.333V296.667H429.467V296.533H429.733V296.4H429.867V296.267H430.133V296.133H430.267V296H430.4V295.867H430.667V295.733H430.8V295.6H430.933V295.467H431.2V295.333H431.333V295.2H431.467V295.067H431.733V294.933H431.867V294.8H432V294.667H432.267V294.533H432.4V294.4H432.533V294.267H432.8V294.133H432.933V294H433.067V293.867H433.2V293.733H433.467V293.6H433.6V293.467H433.733V293.333H434V293.2H434.133V293.067H434.267V292.933H434.533V292.8H434.667V292.667H434.8V292.533H435.067V292.4H435.2V292.267H435.333V292.133H435.6V292H435.733V291.867H436V291.733H436.133V291.6H436.4V291.467H436.533V291.333H436.8V291.2H437.067V291.067H437.2V290.933H437.467V290.8H437.6V290.667H437.867V290.533H438.133V290.4H438.4V290.267H438.667V290.133H438.933V290H439.2V289.867H439.467V289.733H439.867V289.6H440.267V289.467H440.667V289.333H441.067V289.2H441.333V289.067H441.867V288.933H442.4V288.8H442.933V288.667H443.733V288.533H444.533V288.4H445.333V288.267H445.867V288.133H446.4V288H446.933V287.867H447.2V287.733H447.467V287.6H447.733V287.467H448V287.333H448.133V287.2H448.4V287.067H448.533V286.933H448.667V286.8H448.933V286.667H449.067V286.533H449.2V286.4H449.467V286.267H449.6V286.133H449.733V286H449.867V285.867H450.133V285.733H450.267V285.6H450.4V285.467H450.533V285.333H450.8V285.2H450.933V285.067H451.067V284.933H451.333V284.8H451.467V284.667H451.733V284.533H452V284.4H452.267V284.267H452.533V284.133H452.8V284H453.333V283.867H453.733V283.733H454.267V283.6H454.933V283.467H455.733V283.333H456.533V283.2H457.333V283.067H457.867V282.933H458.4V282.8H458.933V282.667H459.2V282.533H459.6V282.4H459.867V282.267H460V282.133H460.267V282H460.533V281.867H460.8V281.733H461.067V281.6H461.2V281.467H461.467V281.333H461.733V281.2H461.867V281.067H462.133V280.933H462.4V280.8H462.533V280.667H462.8V280.533H463.067V280.4H463.2V280.267H463.467V280.133H463.733V280H464.133V279.867H464.4V279.733H464.667V279.6H465.067V279.467H465.467V279.333H465.867V279.2H466.267V279.067H466.667V278.933H467.333V278.8H467.867V278.667H468.533V278.533H469.467V278.4H470.667V278.267H472.533V278.133H476.8V277.867H476.933V277.733H477.067V277.467H477.2V277.333H477.333V277.067H477.467V276.933H477.6V276.8H477.733V276.667H477.867V276.533H478V276.4H478.133V276.267H478.267V276.133H478.4V276H478.667V275.867H478.8V275.733H479.067V275.6H479.333V275.467H479.733V275.333H480.133V275.2H480.533V275.067H480.933V274.933H481.333V274.8H481.733V274.667H482.133V274.533H482.533V274.4H482.8V274.267H483.2V274.133H483.467V274H483.733V273.867H484V273.733H484.267V273.6H484.533V273.467H484.667V273.333H484.933V273.2H485.2V273.067H485.333V272.933H485.6V272.8H485.733V272.667H486V272.533H486.133V272.4H486.267V272.267H486.533V272.133H486.667V272H486.933V271.867H487.067V271.733H487.2V271.6H487.333V271.467H487.6V271.333H487.733V271.2H487.867V271.067H488V270.933H488.267V270.8H488.4V270.667H488.533V270.533H488.667V270.4H488.933V270.267H489.067V270.133H489.2V270H489.333V269.867H489.6V269.733H489.733V269.6H489.867V269.467H490V269.333H490.267V269.2H490.4V269.067H490.533V268.933H490.8V268.8H490.933V268.667H491.067V268.533H491.333V268.4H491.467V268.267H491.733V268.133H491.867V268H492.133V267.867H492.267V267.733H492.4V267.6H492.667V267.467H492.8V267.333H493.067V267.2H493.2V267.067H493.467V266.933H493.733V266.8H493.867V266.667H494.133V266.533H494.4V266.4H494.533V266.267H494.8V266.133H495.067V266H495.2V265.867H495.467V265.733H495.733V265.6H495.867V265.467H496.133V265.333H496.4V265.2H496.533V265.067H496.8V264.933H497.067V264.8H497.333V264.667H497.6V264.533H497.867V264.4H498.133V264.267H498.4V264.133H498.667V264H498.933V263.867H499.2V263.733H499.467V263.6H499.733V263.467H500V263.333H500.267V263.2H500.533V263.067H500.933V262.933H501.2V262.8H501.6V262.667H501.867V262.533H502.133V262.4H502.533V262.267H502.8V262.133H503.067V262H503.467V261.867H503.733V261.733H504.133V261.6H504.4V261.467H504.8V261.333H505.2V261.2H505.6V261.067H506V260.933H506.267V260.8H506.667V260.667H507.067V260.533H507.467V260.4H507.867V260.267H508.267V260.133H508.8V260H509.2V259.867H509.6V259.733H510.133V259.6H510.533V259.467H510.933V259.333H511.467V259.2H511.867V259.067H512.4V258.933H513.067V258.8H513.6V258.667H514.133V258.533H514.667V258.4H515.2V258.267H515.733V258.133H516.4V258H516.933V257.867H517.6V257.733H518.267V257.6H518.933V257.467H519.6V257.333H520.4V257.2H521.067V257.067H521.6V256.933H522.267V256.8H522.8V256.667H523.2V256.533H523.733V256.4H524.133V256.267H524.4V256.133H524.8V256H525.067V255.867H525.333V255.733H525.6V255.6H525.867V255.467H526V255.333H526.267V255.2H526.4V255.067H526.667V254.933H526.8V254.8H527.067V254.667H527.333V254.533H527.467V254.4H527.733V254.267H528V254.133H528.133V254H528.533V253.867H528.8V253.733H529.2V253.6H531.333V253.733H531.867V253.867H532.267V254H532.533V254.133H532.933V254.267H533.067V254.4H533.333V254.533H533.6V254.667H533.733V254.8H534V254.933H534.267V255.067H534.4V255.2H534.533V255.333H534.8V255.467H534.933V255.6H535.067V255.733H535.333V255.867H535.467V256H535.6V256.133H535.733V256.267H536V256.4H536.133V256.533H536.267V256.667H536.4V256.8H536.667V256.933H536.8V257.067H536.933V257.2H537.067V257.333H537.333V257.467H537.467V257.6H537.6V257.733H537.867V257.867H538V258H538.133V258.133H538.4V258.267H538.533V258.4H538.8V258.533H539.067V258.667H539.2V258.8H539.467V258.933H539.733V259.067H540V259.2H540.4V259.333H540.667V259.467H541.067V259.6H541.333V259.733H541.733V259.867H542.133V260H542.667V260.133H543.067V260.267H543.6V260.4H544.267V260.533H544.933V260.667H545.6V260.8H546.267V260.933H547.067V261.067H547.867V261.2H548.533V261.333H549.2V261.467H549.867V261.6H550.533V261.733H551.067V261.867H551.6V262H552V262.133H552.4V262.267H552.933V262.4H553.333V262.533H553.6V262.667H553.867V262.8H554.133V262.933H554.4V263.067H554.667V263.2H554.933V263.333H555.333V263.467H555.6V263.6H555.867V263.733H556V263.867H556.267V264H556.533V264.133H556.667V264.267H556.933V264.4H557.067V264.533H557.333V264.667H557.6V264.8H557.733V264.933H558V265.067H558.133V265.2H558.4V265.333H558.667V265.467H558.8V265.6H559.067V265.733H559.2V265.867H559.333V266H559.6V266.133H559.733V266.267H559.867V266.4H560V266.533H560.267V266.667H560.4V266.8H560.533V266.933H560.8V267.067H560.933V267.2H561.067V267.333H561.333V267.467H561.467V267.6H561.6V267.733H561.733V267.867H562V268H562.133V268.133H562.267V268.267H562.4V268.4H562.533V268.533H562.8V268.667H562.933V268.8H563.067V268.933H563.2V269.067H563.333V269.2H563.467V269.333H563.733V269.467H563.867V269.6H564V269.733H564.133V269.867H564.267V270H564.4V270.133H564.667V270.267H564.8V270.4H564.933V270.533H565.067V270.667H565.2V270.8H565.333V270.933H565.6V271.067H565.733V271.2H565.867V271.333H566V271.467H566.133V271.6H566.4V271.733H566.533V271.867H566.667V272H566.933V272.133H567.067V272.267H567.2V272.4H567.467V272.533H567.6V272.667H567.733V272.8H567.867V272.933H568.133V273.067H568.267V273.2H568.4V273.333H568.667V273.467H568.8V273.6H568.933V273.733H569.2V273.867H569.333V274H569.467V274.133H569.733V274.267H569.867V274.4H570.133V274.533H570.267V274.667H570.533V274.8H570.667V274.933H570.933V275.067H571.067V275.2H571.333V275.333H571.467V275.467H571.733V275.6H571.867V275.733H572.133V275.867H572.267V276H572.4V276.133H572.667V276.267H572.8V276.4H573.067V276.533H573.2V276.667H573.467V276.8H573.6V276.933H573.867V277.067H574V277.2H574.267V277.333H574.533V277.467H574.667V277.6H574.933V277.733H575.067V277.867H575.333V278H575.6V278.133H575.733V278.267H576V278.4H576.267V278.533H576.4V278.667H576.667V278.8H576.933V278.933H577.067V279.067H577.333V279.2H577.6V279.333H577.733V279.467H578V279.6H578.133V279.733H578.4V279.867H578.667V280H578.8V280.133H579.067V280.267H579.333V280.4H579.6V280.533H579.733V280.667H580V280.8H580.267V280.933H580.533V281.067H580.667V281.2H580.933V281.333H581.2V281.467H581.467V281.6H581.6V281.733H581.867V281.867H582.133V282H582.4V282.133H582.533V282.267H582.8V282.4H583.067V282.533H583.333V282.667H583.467V282.8H583.733V282.933H584V283.067H584.267V283.2H584.4V283.333H584.667V283.467H584.933V283.6H585.2V283.733H585.333V283.867H585.6V284H585.867V284.133H586.133V284.267H586.4V284.4H586.533V284.533H586.8V284.667H587.067V284.8H587.333V284.933H587.467V285.067H587.733V285.2H588V285.333H588.267V285.467H588.533V285.6H588.667V285.733H588.933V285.867H589.2V286H589.467V286.133H589.6V286.267H589.867V286.4H590.133V286.533H590.4V286.667H590.533V286.8H590.8V286.933H591.067V287.067H591.2V287.2H591.467V287.333H591.733V287.467H592V287.6H592.133V287.733H592.4V287.867H592.667V288H592.8V288.133H593.067V288.267H593.333V288.4H593.6V288.533H593.733V288.667H594V288.8H594.267V288.933H594.4V289.067H594.667V289.2H594.933V289.333H595.067V289.467H595.333V289.6H595.467V289.733H595.733V289.867H596V290H596.133V290.133H596.4V290.267H596.533V290.4H596.8V290.533H596.933V290.667H597.2V290.8H597.467V290.933H597.6V291.067H597.867V291.2H598V291.333H598.267V291.467H598.533V291.6H598.667V291.733H598.933V291.867H599.067V292H599.333V292.133H599.467V292.267H599.733V292.4H599.867V292.533H600.133V292.667H600.267V292.8H600.4V292.933H600.667V293.067H600.8V293.2H601.067V293.333H601.2V293.467H601.467V293.6H601.6V293.733H601.733V293.867H602V294H602.133V294.133H602.4V294.267H602.533V294.4H602.8V294.533H602.933V294.667H603.067V294.8H603.333V294.933H603.467V295.067H603.6V295.2H603.733V295.333H604V295.467H604.133V295.6H604.267V295.733H604.533V295.867H604.667V296H604.8V296.133H604.933V296.267H605.2V296.4H605.333V296.533H605.467V296.667H605.733V296.8H605.867V296.933H606.133V297.067H606.267V297.2H606.4V297.333H606.667V297.467H606.8V297.6H606.933V297.733H607.2V297.867H607.333V298H607.6V298.133H607.867V298.267H608V298.4H608.267V298.533H608.533V298.667H608.667V298.8H608.933V298.933H609.2V299.067H609.467V299.2H609.733V299.333H610V299.467H610.267V299.6H610.533V299.733H610.933V299.867H611.333V300H611.733V300.133H612.133V300.267H612.8V300.4H613.333V300.533H614V300.667H615.067V300.8H616.667V300.933H619.867V300.8H622.267V300.667H623.2V300.533H624V300.4H624.933V300.267H625.733V300.133H626.533V300H626.933V299.867H627.333V299.733H627.867V299.6H628.267V299.467H628.667V299.333H629.2V299.2H629.6V299.067H630V298.933H630.4V298.8H630.667V298.667H630.933V298.533H631.2V298.4H631.467V298.267H631.733V298.133H632V298H632.4V297.867H632.667V297.733H632.933V297.6H633.2V297.467H633.467V297.333H633.733V297.2H634V297.067H634.133V296.933H634.4V296.8H634.533V296.667H634.8V296.533H634.933V296.4H635.2V296.267H635.333V296.133H635.6V296H635.733V295.867H635.867V295.733H636.133V295.6H636.267V295.467H636.533V295.333H636.667V295.2H636.933V295.067H637.067V294.933H637.2V294.8H637.333V294.667H637.6V294.533H637.733V294.4H637.867V294.267H638V294.133H638.133V294H638.267V293.867H638.4V293.733H638.533V293.6H638.8V293.467H638.933V293.333H639.067V293.2H639.2V293.067H639.333V292.933H639.467V292.8H639.6V292.667H639.733V292.533H639.867V292.4H640.133V292.133H640.267V292H640.4V291.867H640.533V291.733H640.667V291.6H640.8V291.467H640.933V291.333H641.067V291.067H641.2V290.933H641.333V290.8H641.467V290.667H641.6V290.533H641.733V290.4H641.867V290.267H642V290.133H642.133V289.867H642.267V289.733H642.4V289.6H642.533V289.467H642.667V289.333H642.8V289.2H642.933V288.933H643.067V288.8H643.2V288.667H643.333V288.4H643.467V288.267H643.6V288.133H643.733V288H643.867V287.733H644V287.6H644.133V287.467H644.267V287.2H644.4V287.067H644.533V286.933H644.667V286.667H644.8V286.533H644.933V286.267H645.067V286.133H645.2V285.867H645.333V285.733H645.467V285.6H645.6V285.333H645.733V285.2H645.867V284.933H646V284.8H646.133V284.667H646.267V284.533H646.4V284.267H646.533V284.133H646.667V284H646.8V283.867H646.933V283.733H647.067V283.6H647.2V283.467H647.333V283.333H647.467V283.2H647.6V283.067H647.733V282.933H647.867V282.8H648.133V282.667H648.267V282.533H648.4V282.4H648.533V282.267H648.667V282.133H648.933V282H649.067V281.867H649.2V281.733H649.467V281.6H649.6V281.467H649.733V281.333H650V281.2H650.133V281.067H650.4V280.933H650.533V280.8H650.8V280.667H650.933V280.533H651.2V280.4H651.333V280.267H651.6V280.133H651.867V280H652V279.867H652.267V279.733H652.533V279.6H652.8V279.467H652.933V279.333H653.2V279.2H653.467V279.067H653.733V278.933H654V278.8H654.267V278.667H654.533V278.533H654.8V278.4H655.067V278.267H655.2V278.133H655.467V278H655.867V277.867H656.133V277.733H656.533V277.6H658V277.733H658.4V277.867H658.8V278H659.2V278.133H659.467V278.267H659.733V278.4H660.133V278.533H660.4V278.667H660.667V278.8H660.933V278.933H661.2V279.067H661.467V279.2H661.733V279.333H661.867V279.467H662.133V279.6H662.4V279.733H662.667V279.867H662.8V280H663.067V280.133H663.333V280.267H663.467V280.4H663.733V280.533H663.867V280.667H664V280.8H664.267V280.933H664.4V281.067H664.533V281.2H664.8V281.333H664.933V281.467H665.2V281.6H665.333V281.733H665.467V281.867H665.6V282H665.733V282.133H666V282.267H666.133V282.4H666.267V282.533H666.4V282.667H666.533V282.8H666.667V282.933H666.8V283.067H666.933V283.2H667.067V283.333H667.2V283.467H667.333V283.6H667.467V283.733H667.6V283.867H667.867V284H668V284.133H668.133V284.267H668.267V284.4H668.533V284.533H668.8V284.667H669.067V284.8H670V284.667H670.667V284.533H671.333V284.667H672V284.8H672.267V284.933H672.667V285.067H672.8V285.2H673.067V285.333H673.333V285.467H673.467V285.6H673.733V285.733H673.867V285.867H674.133V286H674.267V286.133H674.4V286.267H674.667V286.4H674.8V286.533H675.067V286.667H675.333V286.8H675.467V286.933H675.867V287.067H676.133V287.2H676.667V287.333H677.467V287.2H678V287.067H678.533V286.933H679.067V286.8H680.667V286.933H681.067V287.067H681.467V287.2H682V287.333H682.4V287.467H682.8V287.6H683.333V287.733H683.733V287.867H684.267V288H684.8V288.133H685.333V288.267H685.867V288.4H686.4V288.533H687.067V288.667H687.6V288.8H688.267V288.933H689.067V289.067H689.733V289.2H690.533V289.333H690.8V289.2H691.067V289.067H691.2V288.933H691.467V288.8H691.733V288.667H691.867V288.533H692.133V288.4H692.4V288.267H692.533V288.133H692.8V288H693.067V287.867H693.333V287.733H693.467V287.6H693.733V287.467H694V287.333H694.267V287.2H694.4V287.067H694.667V286.933H694.933V286.8H695.2V286.667H695.467V286.533H695.6V286.4H695.867V286.267H696.133V286.133H696.4V286H696.667V285.867H696.933V285.733H697.2V285.6H697.467V285.467H697.733V285.333H697.867V285.2H698.133V285.067H698.4V284.933H698.667V284.8H698.933V284.667H699.2V284.533H699.467V284.4H699.733V284.267H700V284.133H700.267V284H700.533V283.867H700.8V283.733H701.067V283.6H701.333V283.467H701.6V283.333H701.867V283.2H702.267V283.067H702.533V282.933H702.8V282.8H703.067V282.667H703.333V282.533H703.6V282.4H703.867V282.267H704.133V282.133H704.4V282H704.667V281.867H704.933V281.733H705.333V281.6H705.6V281.467H705.867V281.333H706.133V281.2H706.4V281.067H706.667V280.933H706.933V280.8H707.2V280.667H707.6V280.533H707.867V280.4H708.133V280.267H708.4V280.133H708.667V280H708.933V279.867H709.2V279.733H709.6V279.6H709.867V279.467H710.133V279.333H710.4V279.2H710.667V279.067H710.933V278.933H711.2V278.8H711.6V278.667H711.867V278.533H712.133V278.4H712.4V278.267H712.667V278.133H712.933V278H713.2V277.867H713.6V277.733H713.867V277.6H714.133V277.467H714.4V277.333H714.667V277.2H714.933V277.067H715.2V276.933H715.467V276.8H715.867V276.667H716.133V276.533H716.4V276.4H716.667V276.267H716.933V276.133H717.2V276H717.467V275.867H717.867V275.733H718.133V275.6H718.4V275.467H718.667V275.333H718.933V275.2H719.2V275.067H719.467V274.933H719.867V274.8H720.133V274.667H720.4V274.533H720.667V274.4H720.933V274.267H721.2V274.133H721.467V274H721.867V273.867H722.133V273.733H722.4V273.6H722.667V273.467H722.933V273.333H723.2V273.2H723.467V273.067H723.733V272.933H724.133V272.8H724.4V272.667H724.667V272.533H724.933V272.4H725.2V272.267H725.467V272.133H725.733V272H726.133V271.867H726.4V271.733H726.667V271.6H726.933V271.467H727.2V271.333H727.467V271.2H727.733V271.067H728.133V270.933H728.4V270.8H728.667V270.667H728.933V270.533H729.2V270.4H729.467V270.267H729.733V270.133H730.133V270H730.4V269.867H730.667V269.733H730.933V269.6H731.2V269.467H731.467V269.333H731.733V269.2H732.133V269.067H732.4V268.933H732.667V268.8H732.933V268.667H733.2V268.533H733.467V268.4H733.733V268.267H734V268.133H734.4V268H734.667V267.867H734.933V267.733H735.2V267.6H735.467V267.467H735.733V267.333H736V267.2H736.4V267.067H736.667V266.933H736.933V266.8H737.2V266.667H737.467V266.533H737.733V266.4H738V266.267H738.4V266.133H738.667V266H738.933V265.867H739.2V265.733H739.467V265.6H739.733V265.467H740V265.333H740.4V265.2H740.667V265.067H740.933V264.933H741.2V264.8H741.467V264.667H741.733V264.533H742V264.4H742.267V264.267H742.667V264.133H742.933V264H743.2V263.867H743.467V263.733H743.733V263.6H744V263.467H744.267V263.333H744.667V263.2H744.933V263.067H745.2V262.933H745.467V262.8H745.733V262.667H746V262.533H746.4V262.4H746.667V262.267H746.933V262.133H747.2V262H747.467V261.867H747.733V261.733H748.133V261.6H748.4V261.467H748.667V261.333H748.933V261.2H749.333V261.067H749.6V260.933H749.867V260.8H750.267V260.667H750.533V260.533H750.8V260.4H751.2V260.267H751.467V260.133H751.867V260H752.133V259.867H752.533V259.733H752.8V259.6H753.2V259.467H753.6V259.333H754V259.2H754.4V259.067H754.8V258.933H755.067V258.8H755.467V258.667H756V258.533H756.4V258.4H756.933V258.267H757.333V258.133H757.867V258H758.4V257.867H758.933V257.733H759.6V257.6H760.4V257.467H761.067V257.333H762.133V257.2H763.6V257.067H767.067V257.2H768.4V257.333H769.467V257.467H770.933V257.6H773.467V257.467H774.533V257.333H775.333V257.2H775.867V257.067H776.533V256.933H777.067V256.8H777.6V256.667H778.133V256.533H778.533V256.4H778.933V256.267H779.333V256.133H779.867V256H780.267V255.867H780.667V255.733H781.067V255.6H781.333V255.467H781.733V255.333H782.133V255.2H782.4V255.067H782.8V254.933H783.067V254.8H783.467V254.667H783.867V254.533H784.133V254.4H784.4V254.267H784.8V254.133H785.067V254H785.467V253.867H785.733V253.733H786V253.6H786.4V253.467H786.667V253.333H786.933V253.2H787.333V253.067H787.6V252.933H787.867V252.8H788.267V252.667H788.533V252.533H788.8V252.4H789.067V252.267H789.467V252.133H789.733V252H790V251.867H790.4V251.733H790.667V251.6H790.933V251.467H791.333V251.333H791.6V251.2H791.867V251.067H792.267V250.933H792.533V250.8H792.933V250.667H793.2V250.533H793.6V250.4H793.867V250.267H794.267V250.133H794.533V250H794.933V249.867H795.333V249.733H795.733V249.6H796V249.467H796.4V249.333H796.667V249.2H797.067V249.067H797.467V248.933H797.733V248.8H798.133V248.667H798.4V248.533H798.8V248.4H799.067V248.267H799.467V248.133H799.867V248H800.133V247.867H800.533V247.733H800.8V247.6H801.2V247.467H801.6V247.333H801.867V247.2H802.267V247.067H802.533V246.933H802.933V246.8H803.2V246.667H803.6V246.533H804V246.4H804.267V246.267H804.667V246.133H804.933V246H805.333V245.867H805.6V245.733H806V245.6H806.4V245.467H806.667V245.333H807.067V245.2H807.333V245.067H807.733V244.933H808.133V244.8H808.4V244.667H808.8V244.533H809.067V244.4H809.467V244.267H809.733V244.133H810.133V244H810.4V243.867H810.8V243.733H811.067V243.6H811.467V243.467H811.733V243.333H812V243.2H812.4V243.067H812.667V242.933H813.067V242.8H813.333V242.667H813.6V242.533H814V242.4H814.267V242.267H814.667V242.133H814.933V242H815.2V241.867H815.6V241.733H815.867V241.6H816.133V241.467H816.533V241.333H816.8V241.2H817.067V241.067H817.467V240.933H817.733V240.8H818.133V240.667H818.4V240.533H818.667V240.4H819.067V240.267H819.333V240.133H819.6V240H820V239.867H820.267V239.733H820.533V239.6H820.933V239.467H821.2V239.333H821.467V239.2H821.867V239.067H822.133V238.933H822.4V238.8H822.667V238.667H823.067V238.533H823.333V238.4H823.6V238.267H824V238.133H824.267V238H824.533V237.867H824.933V237.733H825.2V237.6H825.467V237.467H825.733V237.333H826.133V237.2H826.4V237.067H826.667V236.933H827.067V236.8H827.333V236.667H827.6V236.533H828V236.4H828.267V236.267H828.533V236.133H828.8V236H829.2V235.867H829.467V235.733H829.733V235.6H830.133V235.467H830.4V235.333H830.667V235.2H830.933V235.067H831.333V234.933H831.6V234.8H831.867V234.667H832.267V234.533H832.533V234.4H832.8V234.267H833.2V234.133H833.467V234H833.733V233.867H834V233.733H834.4V233.6H834.667V233.467H834.933V233.333H835.333V233.2H835.6V233.067H835.867V232.933H836.133V232.8H836.533V232.667H836.8V232.533H837.067V232.4H837.467V232.267H837.733V232.133H838V232H838.267V231.867H838.667V231.733H838.933V231.6H839.2V231.467H839.6V231.333H839.867V231.2H840.133V231.067H840.4V230.933H840.8V230.8H841.067V230.667H841.333V230.533H841.733V230.4H842V230.267H842.267V230.133H842.667V230H842.933V229.867H843.2V229.733H843.467V229.6H843.867V229.467H844.133V229.333H844.4V229.2H844.8V229.067H845.067V228.933H845.333V228.8H845.733V228.667H846V228.533H846.267V228.4H846.667V228.267H846.933V228.133H847.2V228H847.467V227.867H847.867V227.733H848.133V227.6H848.533V227.467H848.8V227.333H849.2V227.2H849.6V227.067H850V226.933H850.8V226.8H852.267V226.933H852.8V227.067H853.067V227.2H853.333V227.333H853.6V227.467H853.733V227.6H854V227.733H854.133V227.867H854.4V228H854.533V228.133H854.667V228.267H854.933V228.4H855.067V228.533H855.2V228.667H855.333V228.8H855.6V228.933H855.733V229.067H855.867V229.2H856.133V229.333H856.267V229.467H856.533V229.6H856.8V229.733H857.2V229.867H857.6V230H858.267V230.133H859.333V230.267H864.533V230.4H866.667V230.533H867.6V230.667H868.533V230.8H869.467V230.933H870.4V231.067H871.333V231.2H871.867V231.333H872.4V231.467H872.933V231.6H873.6V231.733H874.133V231.867H874.667V232H875.2V232.133H875.733V232.267H876.267V232.4H876.667V232.533H877.067V232.667H877.467V232.8H877.867V232.933H878.267V233.067H878.667V233.2H879.067V233.333H879.467V233.467H879.867V233.6H880.267V233.733H880.533V233.867H880.8V234H880.933V233.867H881.2V233.733H881.467V233.6H881.6V233.467H882V233.333H882.4V233.2H882.8V233.067H885.333V233.2H886V233.333H886.4V233.467H886.8V233.6H887.067V233.733H887.333V233.867H887.733V234H888V234.133H888.133V234.267H888.4V234.4H888.667V234.533H888.8V234.667H888.933V234.8H889.2V234.933H889.333V235.067H889.467V235.2H889.6V235.333H889.867V235.467H890V235.6H890.133V235.733H890.267V235.867H890.4V236H890.533V236.133H890.667V236.267H890.8V236.4H891.067V236.533H891.2V236.667H891.333V236.8H891.467V236.933H891.6V237.067H891.733V237.2H891.867V237.333H892V237.467H892.133V237.6H892.267V237.733H892.4V237.867H892.533V238H892.667V238.133H892.8V238.267H892.933V238.4H893.067V238.533H893.2V238.667H893.333V238.8H893.467V238.933H893.6V239.067H893.733V239.2H893.867V239.333H894.133V239.467H894.267V239.6H894.4V239.733H894.533V239.867H894.667V240H894.933V240.133H895.067V240.267H895.2V240.4H895.467V240.533H895.6V240.667H895.867V240.8H896V240.933H896.267V241.067H896.533V241.2H896.8V241.333H896.933V241.467H897.2V241.6H897.467V241.733H897.733V241.867H898.133V242H898.533V242.133H898.8V242.267H899.2V242.4H899.467V242.533H899.867V242.667H900.267V242.8H900.8V242.933H901.467V243.067H902.133V243.2H902.8V243.333H903.867V243.467H905.6V243.6H908.133V243.467H910.267V243.333H911.6V243.2H912.8V243.067H913.6V242.933H914.533V242.8H915.467V242.667H916.133V242.533H916.933V242.4H917.6V242.267H918.267V242.133H918.4V242H918.533V241.333H918.667V240.8H918.8V240.533H918.933V240.133H919.067V239.867H919.2V239.6H919.333V239.333H919.467V239.2H919.6V238.933H919.733V238.8H919.867V238.533H920V238.4H920.133V238.267H920.267V238.133H920.4V238H920.533V237.867H920.667V237.733H920.8V237.6H920.933V237.467H921.067V237.333H921.2V237.2H921.467V237.067H921.6V236.933H921.733V236.8H921.867V236.667H922.133V236.533H922.4V236.4H922.533V236.267H922.8V236.133H923.067V236H923.2V235.867H923.6V235.733H923.867V235.6H924.133V235.467H924.4V235.333H924.8V235.2H925.2V235.067H925.6V234.933H926.133V234.8H926.8V234.667H927.6V234.533H928.533V234.4H930.267V234.267H932.667V234.133H935.2V234H936.8V233.867H937.733V233.733H938.533V233.6H939.2V233.467H939.867V233.333H940.4V233.2H940.933V233.067H941.467V232.933H942V232.8H942.533V232.667H943.067V232.533H943.467V232.4H943.867V232.267H944.4V232.133H944.8V232H945.2V231.867H945.6V231.733H946V231.6H946.4V231.467H946.8V231.333H947.2V231.2H947.6V231.067H948V230.933H948.4V230.8H948.8V230.667H949.2V230.533H949.467V230.4H949.867V230.267H950.267V230.133H950.667V230H951.067V229.867H951.467V229.733H951.867V229.6H952.267V229.467H952.533V229.333H952.933V229.2H953.333V229.067H953.733V228.933H954.133V228.8H954.533V228.667H954.933V228.533H955.2V228.4H955.6V228.267H956V228.133H956.4V228H956.8V227.867H957.2V227.733H957.6V227.6H957.867V227.467H958V227.067H958.133V226.933H958.267V226.8H958.4V226.667H958.533V226.533H958.8V226.4H959.2V226.267H960V226.133H962.667V226H964V225.867H965.067V225.733H965.733V225.6H966.4V225.467H967.067V225.333H967.6V225.2H968.267V225.067H968.667V224.933H969.067V224.8H969.467V224.667H969.867V224.533H970.267V224.4H970.667V224.267H971.067V224.133H971.333V224H971.6V223.867H972V223.733H972.267V223.6H972.533V223.467H972.933V223.333H973.2V223.2H973.467V223.067H973.733V222.933H973.867V222.8H974.133V222.667H974.4V222.533H974.667V222.4H974.933V222.267H975.2V222.133H975.467V222H975.733V221.867H976V221.733H976.267V221.6H976.533V221.467H976.8V221.333H977.2V221.2H977.6V221.067H978V220.933H978.667V220.8H980.267V220.933H980.8V221.067H981.2V221.2H981.467V221.333H981.733V221.467H981.867V221.6H982.133V221.733H982.267V221.867H982.4V222H982.533V222.133H982.667V222.267H982.8V222.4H982.933V222.667H983.067V222.933H983.2V223.2H983.333V223.867H983.467V223.733H983.6V223.6H983.867V223.467H984V223.333H984.133V223.2H984.267V223.067H984.4V222.933H984.667V222.8H984.8V222.667H984.933V222.533H985.2V222.4H985.333V222.267H985.6V222.133H985.733V222H986V221.867H986.267V221.733H986.533V221.6H986.8V221.467H987.2V221.333H987.6V221.2H988.4V221.067H989.2V221.2H990V221.333H990.267V221.467H990.533V221.6H990.667V221.733H990.933V221.867H991.067V222H991.2V222.133H991.333V222.267H991.467V222.4H991.733V222.533H991.867V222.667H992.667V222.533H992.8V222.4H993.067V222.267H993.2V222.133H993.333V222H993.467V221.733H993.6V221.6H993.733V221.467H993.867V221.333H994V221.2H994.133V221.067H994.267V220.933H994.4V220.8H994.533V220.667H994.8V220.533H994.933V220.4H995.2V220.267H995.467V220.133H995.733V220H996.267V219.867H996.667V219.733H999.067V219.867H999.467V220H999.733V220.133H1000V666.667" fill="url(#paint1_linear_1_656)"/>
</g>
</g>
<mask id="mask2_1_656" style="mask-type:luminance" maskUnits="userSpaceOnUse" x="0" y="258" width="1" height="27">
<path d="M0.175 284.247C0.123958 284.208 0.0640625 284.181 0 284.163V284.103C0.0583333 284.151 0.116667 284.199 0.175 284.247ZM0 283.245V258.561C0.205729 258.648 0.410937 258.735 0.616145 258.821L0.667188 280.083C0.648959 280.107 0.631251 280.131 0.613541 280.155C0.419792 279.983 0.270312 279.777 0.177084 279.557C0.163541 279.503 0.144792 279.449 0.120313 279.397C0.136459 279.452 0.155208 279.505 0.177084 279.557C0.236979 279.795 0.193229 280.051 0.0510417 280.265C0.254688 280.385 0.471355 280.521 0.5375 280.717C0.6 280.901 0.439063 281.139 0.214584 281.139C0.199479 281.139 0.183333 281.137 0.167188 281.135C0.173437 281.816 0.278645 282.499 0.480208 283.16C0.318229 283.18 0.157812 283.208 0 283.245Z" fill="white"/>
</mask>
<g mask="url(#mask2_1_656)">
<path d="M0.175 284.247C0.123958 284.208 0.0640625 284.181 0 284.163V284.103C0.0583333 284.151 0.116667 284.199 0.175 284.247ZM0 283.245V258.561C0.205729 258.648 0.410937 258.735 0.616145 258.821L0.667188 280.083C0.648959 280.107 0.631251 280.131 0.613541 280.155C0.419792 279.983 0.270312 279.777 0.177084 279.557C0.163541 279.503 0.144792 279.449 0.120313 279.397C0.136459 279.452 0.155208 279.505 0.177084 279.557C0.236979 279.795 0.193229 280.051 0.0510417 280.265C0.254688 280.385 0.471355 280.521 0.5375 280.717C0.6 280.901 0.439063 281.139 0.214584 281.139C0.199479 281.139 0.183333 281.137 0.167188 281.135C0.173437 281.816 0.278645 282.499 0.480208 283.16C0.318229 283.18 0.157812 283.208 0 283.245Z" fill="url(#paint2_linear_1_656)"/>
</g>
<defs>
<linearGradient id="paint0_linear_1_656" x1="501.061" y1="-161.483" x2="498.567" y2="1001.69" gradientUnits="userSpaceOnUse">
<stop stop-color="#F2C165"/>
<stop offset="0.0603562" stop-color="#F2C165"/>
<stop offset="0.323158" stop-color="#F7AF45"/>
<stop offset="0.717402" stop-color="#696762"/>
<stop offset="1" stop-color="#231F20"/>
</linearGradient>
<linearGradient id="paint1_linear_1_656" x1="504.811" y1="692.06" x2="496.993" y2="-340.849" gradientUnits="userSpaceOnUse">
<stop stop-color="#F7AF45"/>
<stop offset="0.130693" stop-color="#F7AF45"/>
<stop offset="0.471613" stop-color="#696762"/>
<stop offset="1" stop-color="#231F20"/>
</linearGradient>
<linearGradient id="paint2_linear_1_656" x1="504.811" y1="692.06" x2="496.993" y2="-340.85" gradientUnits="userSpaceOnUse">
<stop stop-color="#B58944"/>
<stop offset="0.130693" stop-color="#B58944"/>
<stop offset="0.471613" stop-color="#5B5B53"/>
<stop offset="1" stop-color="#23221B"/>
</linearGradient>
</defs>
</svg>
